<?xml version="1.0" standalone="no"?>
<!DOCTYPE svg PUBLIC "-//W3C//DTD SVG 20010904//EN"
 "http://www.w3.org/TR/2001/REC-SVG-20010904/DTD/svg10.dtd">
<svg version="1.0" xmlns="http://www.w3.org/2000/svg"
 width="808.000000pt" height="808.000000pt" viewBox="0 0 808.000000 808.000000"
 preserveAspectRatio="xMidYMid meet">
<metadata>
Created by potrace 1.14, written by Peter Selinger 2001-2017
</metadata>
<g transform="translate(0.000000,808.000000) scale(0.100000,-0.100000)"
fill="#000000" stroke="none">
<path d="M4160 7709 c12 -9 11 -10 -6 -6 -12 2 -29 0 -39 -6 -12 -7 -16 -6
-11 1 7 12 -62 11 -82 -2 -7 -4 -12 -2 -12 6 0 10 -2 10 -9 -1 -7 -11 -9 -11
-13 0 -4 12 -7 12 -21 0 -14 -11 -17 -11 -17 0 0 11 -2 11 -10 -1 -8 -12 -10
-12 -10 -1 0 10 -3 11 -14 2 -10 -8 -16 -9 -21 -1 -4 7 -12 7 -25 0 -13 -7
-20 -6 -24 3 -5 9 -7 9 -12 0 -3 -6 -17 -9 -31 -7 -24 5 -25 3 -12 -13 13 -17
13 -17 -6 -3 -11 8 -24 20 -28 25 -5 6 -7 3 -3 -7 3 -10 1 -20 -4 -23 -6 -4
-10 -1 -10 6 0 8 -4 8 -15 -1 -12 -10 -15 -10 -15 1 0 9 -3 10 -8 4 -8 -12
-72 -13 -90 -2 -7 5 -14 2 -18 -7 -5 -13 -10 -13 -27 -4 -19 10 -20 9 -9 -4
11 -14 6 -15 -43 -14 -38 1 -56 -3 -60 -13 -4 -11 -8 -11 -22 0 -14 12 -16 12
-8 0 6 -11 4 -13 -8 -8 -10 3 -17 3 -17 -1 0 -4 -21 -7 -46 -6 -30 0 -48 -4
-51 -13 -3 -7 -9 -13 -15 -13 -5 0 -6 6 -2 13 4 6 -1 4 -12 -5 -13 -11 -24
-14 -34 -8 -9 5 -19 5 -27 -1 -7 -6 -18 -7 -24 -3 -7 4 -9 3 -5 -4 3 -6 2 -13
-4 -17 -5 -3 -10 0 -10 7 0 8 -3 9 -8 3 -4 -6 -14 -10 -22 -10 -8 0 -18 -4
-22 -10 -5 -6 -8 -5 -8 3 0 10 -3 10 -14 0 -8 -7 -12 -17 -9 -21 3 -5 -4 -4
-16 2 -16 9 -21 9 -21 0 0 -6 -7 -8 -16 -5 -8 3 -13 2 -10 -3 3 -5 -1 -11 -9
-14 -10 -4 -12 -1 -9 11 5 16 5 16 -9 0 -8 -11 -23 -16 -36 -13 -18 3 -21 1
-17 -12 6 -14 4 -14 -11 -2 -11 9 -14 10 -9 2 7 -13 -4 -17 -31 -14 -7 1 -13
-4 -13 -10 0 -7 -3 -9 -7 -6 -3 4 -13 1 -21 -6 -13 -10 -15 -9 -9 8 7 19 6 19
-7 3 -7 -10 -19 -18 -25 -18 -7 0 -9 -4 -6 -10 3 -5 -1 -10 -10 -10 -10 0 -14
5 -10 13 4 6 -1 3 -9 -7 -9 -11 -16 -16 -16 -12 0 5 -8 2 -17 -5 -14 -12 -16
-12 -8 0 6 10 4 12 -4 7 -7 -5 -10 -14 -7 -22 4 -10 0 -11 -20 -4 -32 13 -43
12 -24 0 13 -8 12 -10 -2 -10 -10 0 -18 -4 -18 -9 0 -5 -10 -7 -22 -3 -14 3
-19 1 -14 -6 3 -6 2 -13 -4 -17 -5 -3 -10 0 -10 7 0 10 -2 10 -9 -1 -5 -8 -14
-10 -22 -6 -9 6 -11 4 -6 -8 4 -11 2 -14 -9 -10 -7 3 -14 0 -14 -5 0 -6 -9 -9
-21 -7 -15 3 -19 0 -15 -10 3 -9 -1 -12 -15 -10 -10 2 -19 0 -19 -5 0 -5 -9
-7 -21 -5 -16 3 -18 1 -10 -8 7 -10 4 -13 -12 -14 -12 -1 -23 -7 -25 -13 -2
-5 -13 -10 -24 -10 -10 0 -26 -7 -35 -15 -8 -8 -19 -13 -24 -9 -5 3 -8 0 -7
-8 2 -7 -4 -12 -14 -10 -9 1 -22 -7 -28 -18 -7 -12 -18 -19 -25 -16 -8 3 -17
0 -21 -6 -5 -7 -2 -8 6 -3 9 6 11 4 6 -4 -5 -7 -14 -10 -22 -7 -8 3 -14 1 -14
-4 0 -5 -9 -12 -20 -15 -11 -4 -18 -11 -15 -16 3 -5 -2 -6 -11 -2 -11 4 -15 3
-11 -4 4 -7 -6 -17 -23 -25 -16 -7 -30 -16 -30 -19 0 -4 -14 -12 -31 -18 -17
-6 -28 -15 -24 -20 3 -6 -3 -8 -15 -6 -11 2 -23 -1 -26 -7 -5 -7 -2 -8 7 -3
12 8 12 6 0 -8 -7 -9 -19 -17 -27 -17 -7 0 -18 -8 -23 -17 -6 -10 -11 -14 -11
-8 0 5 -7 -1 -16 -13 -16 -23 -41 -31 -28 -9 4 7 3 9 -2 4 -5 -5 -9 -14 -9
-20 -1 -7 -6 -11 -13 -9 -7 1 -12 -5 -12 -15 0 -9 -3 -13 -6 -10 -4 4 -22 -10
-40 -29 -18 -20 -37 -33 -43 -29 -7 4 -10 1 -9 -7 2 -7 -3 -12 -9 -10 -12 2
-17 -11 -14 -31 1 -5 -3 -6 -9 -2 -10 6 -47 -10 -42 -19 6 -14 1 -27 -8 -21
-6 3 -13 -1 -16 -9 -3 -9 -11 -13 -17 -9 -6 4 -8 0 -4 -11 4 -10 3 -15 -3 -11
-6 3 -10 1 -10 -5 0 -6 -5 -8 -10 -5 -9 6 -15 -8 -11 -29 1 -5 -5 -3 -14 4
-13 11 -15 10 -10 -2 4 -9 -1 -18 -10 -22 -9 -3 -13 -11 -10 -16 4 -6 2 -9 -3
-8 -5 2 -42 -31 -83 -72 -40 -41 -76 -74 -80 -73 -4 2 -6 -6 -4 -17 2 -12 0
-18 -6 -15 -5 4 -9 1 -9 -5 0 -6 -5 -8 -12 -4 -8 5 -9 2 -5 -9 4 -12 1 -17
-10 -17 -9 0 -14 -3 -10 -6 8 -8 -18 -34 -35 -34 -10 0 -10 -2 1 -9 11 -7 8
-13 -13 -26 -15 -10 -24 -20 -21 -23 3 -3 -4 -11 -15 -19 -11 -8 -20 -20 -20
-27 0 -8 -10 -21 -23 -30 -12 -9 -15 -14 -7 -11 8 3 5 -2 -8 -11 -12 -9 -22
-22 -22 -30 0 -7 -8 -17 -17 -23 -10 -5 -18 -13 -18 -18 0 -4 -4 -7 -10 -5 -5
2 -7 0 -3 -4 4 -4 2 -14 -5 -22 -10 -13 -9 -15 3 -8 8 4 3 -2 -13 -14 -15 -12
-27 -30 -27 -40 0 -20 -23 -43 -33 -34 -4 4 -5 -3 -2 -14 2 -12 -1 -25 -7 -28
-7 -5 -8 -2 -3 6 5 9 4 11 -4 6 -7 -4 -10 -13 -8 -19 2 -6 -5 -20 -15 -31 -12
-14 -15 -22 -7 -27 7 -4 4 -9 -10 -14 -12 -3 -19 -11 -16 -16 4 -5 1 -9 -5 -9
-7 0 -10 -7 -6 -15 3 -8 2 -15 -3 -15 -4 0 -14 -12 -22 -27 -8 -16 -18 -31
-24 -35 -5 -4 -11 -12 -11 -18 -1 -5 -3 -12 -4 -15 -3 -7 -7 -22 -9 -36 0 -5
-5 -8 -9 -5 -4 2 -9 -5 -9 -17 -1 -12 -7 -23 -13 -25 -5 -2 -10 -15 -10 -28 0
-15 -6 -24 -15 -24 -8 0 -15 -5 -15 -11 0 -5 5 -7 11 -3 7 4 7 -1 -1 -16 -7
-14 -17 -19 -27 -16 -13 5 -14 4 -4 -8 13 -16 1 -47 -29 -74 -8 -7 -9 -11 -2
-7 6 3 12 1 12 -4 0 -6 -4 -11 -10 -11 -5 0 -7 -6 -4 -14 3 -7 -2 -16 -10 -19
-9 -4 -13 -13 -10 -21 3 -8 -4 -21 -16 -29 -13 -9 -17 -17 -11 -22 6 -3 11 -1
11 6 0 7 3 9 7 5 5 -4 -1 -14 -11 -22 -14 -10 -16 -14 -5 -14 10 -1 8 -5 -6
-16 -12 -9 -20 -27 -20 -47 -1 -22 -6 -32 -17 -31 -12 1 -14 -5 -8 -32 5 -20
4 -32 -1 -28 -5 3 -9 -2 -9 -10 0 -9 -4 -16 -10 -16 -5 0 -7 -6 -4 -14 3 -8 1
-17 -4 -20 -6 -3 -8 -15 -5 -26 3 -12 0 -20 -6 -20 -7 0 -9 -4 -6 -10 3 -5 1
-10 -6 -10 -8 0 -8 -4 -1 -13 7 -8 7 -18 2 -27 -5 -8 -6 -19 -2 -25 3 -5 -1
-4 -10 3 -13 11 -15 7 -13 -33 2 -25 -1 -45 -7 -45 -5 0 -6 -4 -3 -10 3 -5 2
-10 -4 -10 -6 0 -7 -7 -4 -17 5 -11 3 -14 -6 -8 -10 6 -11 3 -2 -14 7 -11 8
-21 3 -21 -4 0 -7 -13 -6 -29 1 -19 -2 -28 -10 -25 -7 3 -11 -14 -12 -53 0
-37 -5 -57 -12 -56 -6 2 -9 -4 -6 -12 4 -9 0 -15 -7 -15 -12 0 -12 -2 0 -9 9
-6 10 -14 4 -27 -5 -11 -9 -45 -8 -76 0 -33 -4 -56 -10 -55 -6 1 -10 -34 -10
-91 0 -50 -3 -92 -6 -92 -3 0 -5 -12 -3 -27 1 -15 -4 -39 -11 -54 -8 -14 -11
-29 -8 -33 9 -8 12 -46 4 -46 -8 0 -6 -115 3 -128 4 -7 4 -12 -1 -12 -4 0 -8
-36 -8 -79 0 -44 3 -77 8 -74 10 6 9 -5 -4 -29 -6 -12 -7 -18 -1 -14 5 3 16
-2 23 -11 12 -14 12 -16 -2 -11 -9 4 -16 1 -16 -8 0 -7 4 -11 8 -9 3 3 9 -6
11 -20 3 -14 1 -25 -4 -25 -5 0 -6 -5 -2 -12 4 -6 8 -40 8 -75 0 -35 4 -63 9
-63 5 0 3 -8 -4 -17 -12 -14 -12 -16 2 -11 13 5 15 0 13 -23 -2 -18 0 -28 6
-24 6 4 6 -4 0 -21 -8 -20 -8 -29 1 -34 8 -5 8 -10 0 -14 -7 -4 -7 -15 -1 -30
5 -13 6 -27 2 -32 -4 -4 -1 -4 6 0 7 4 9 12 6 18 -4 6 -2 8 4 5 11 -8 11 -25
-1 -44 -4 -6 -4 -14 1 -17 4 -2 9 -19 10 -37 3 -40 10 -51 25 -42 8 5 8 2 0
-9 -7 -8 -11 -17 -8 -19 2 -3 5 -21 7 -41 1 -20 5 -35 9 -32 11 6 17 -18 13
-51 -2 -16 1 -32 7 -36 5 -3 11 -16 12 -27 1 -12 4 -22 8 -22 9 0 6 -20 -4
-37 -5 -7 -1 -10 11 -6 16 4 18 -1 15 -36 -2 -26 1 -40 8 -38 6 1 13 -14 15
-33 2 -19 9 -36 14 -38 6 -2 10 -15 10 -28 0 -13 6 -24 13 -24 8 0 7 -4 -3
-10 -8 -5 -10 -10 -4 -10 11 0 21 -21 30 -65 3 -10 10 -22 16 -26 6 -4 8 -15
4 -24 -5 -13 -2 -16 11 -11 10 4 14 4 10 0 -4 -4 -1 -14 6 -22 9 -13 9 -14 0
-8 -7 4 -13 3 -13 -2 0 -6 7 -12 15 -16 8 -3 15 -17 15 -31 0 -15 4 -24 10
-20 6 3 10 -3 10 -14 0 -10 6 -22 13 -24 9 -4 9 -6 0 -6 -7 -1 -13 -6 -13 -12
0 -5 5 -7 10 -4 6 3 10 -1 10 -9 0 -9 5 -16 11 -16 5 0 8 -4 4 -9 -3 -5 2 -17
11 -25 9 -9 13 -23 10 -32 -3 -8 -2 -13 3 -10 5 3 15 -2 22 -11 10 -12 10 -14
2 -9 -20 12 -15 -1 10 -25 12 -12 15 -18 7 -14 -11 6 -10 3 2 -12 20 -22 24
-38 6 -27 -7 4 -8 3 -4 -4 4 -6 13 -9 21 -6 10 4 13 0 10 -15 -2 -14 1 -21 11
-21 8 0 14 -6 14 -14 0 -8 6 -17 12 -19 10 -4 10 -6 1 -6 -7 -1 -13 -5 -13
-11 0 -5 6 -9 13 -7 6 1 11 -4 10 -10 -2 -7 2 -13 8 -13 6 0 8 -7 5 -16 -5
-14 -4 -15 9 -4 13 11 14 10 9 -5 -5 -12 1 -24 17 -37 13 -11 18 -17 12 -13
-9 4 -11 1 -7 -9 3 -9 11 -13 16 -9 7 4 9 -4 6 -21 -4 -19 -2 -24 6 -17 8 7
16 4 24 -10 10 -15 10 -19 0 -19 -8 0 -5 -5 5 -11 9 -5 17 -16 17 -24 0 -8 5
-17 12 -21 7 -4 8 -3 4 4 -15 25 3 10 20 -15 17 -27 17 -28 -2 -13 -14 11 -13
8 4 -11 12 -14 19 -29 15 -33 -5 -4 -3 -7 2 -6 20 4 35 0 35 -11 0 -5 -6 -7
-12 -4 -7 3 -3 -2 9 -11 13 -9 23 -23 23 -31 0 -8 5 -11 10 -8 6 3 10 -4 10
-16 0 -12 3 -20 6 -16 3 3 12 0 19 -6 10 -9 10 -16 2 -27 -6 -8 -8 -12 -3 -8
10 8 67 -52 60 -64 -3 -4 0 -7 8 -6 7 2 12 -4 10 -12 -2 -8 0 -12 4 -8 8 8 54
-37 54 -53 0 -6 5 -7 12 -3 7 5 9 0 6 -14 -5 -16 -2 -20 13 -17 12 2 20 -4 25
-18 9 -29 44 -58 58 -50 6 4 5 -1 -3 -10 -11 -15 -11 -17 2 -17 8 0 17 -7 21
-15 3 -8 11 -14 18 -13 7 2 12 -5 10 -14 -3 -16 9 -23 31 -19 5 1 6 -3 3 -8
-3 -5 1 -11 9 -15 8 -3 15 -12 15 -21 0 -8 6 -14 13 -12 6 1 11 -3 10 -10 -2
-7 6 -10 18 -8 16 3 18 1 10 -8 -7 -9 2 -20 35 -41 28 -18 43 -34 40 -42 -3
-8 -2 -13 2 -13 28 4 44 -3 38 -17 -5 -12 -1 -14 17 -8 12 3 19 3 15 -1 -7 -7
14 -35 27 -35 10 0 30 -23 38 -44 6 -16 10 -16 24 -5 9 8 14 9 11 4 -4 -6 -3
-17 3 -25 7 -13 9 -13 10 0 0 11 2 10 8 -3 4 -10 10 -18 15 -17 4 0 17 -11 28
-25 13 -17 27 -25 39 -22 11 3 19 1 19 -5 0 -5 7 -16 15 -24 12 -12 15 -12 15
-2 1 7 7 2 15 -12 9 -15 14 -19 15 -10 0 13 2 13 9 0 6 -8 7 -18 5 -22 -3 -4
1 -5 9 -3 7 3 24 -3 36 -14 13 -12 28 -18 34 -14 6 3 7 1 3 -5 -6 -11 6 -16
19 -9 2 1 11 -7 19 -18 9 -11 16 -16 16 -11 0 5 8 -1 19 -12 10 -12 21 -19 25
-15 3 3 6 0 6 -8 0 -11 2 -11 10 1 8 13 10 12 10 -2 0 -11 8 -18 20 -18 11 0
20 -7 20 -15 0 -14 14 -19 48 -18 6 1 12 -5 12 -13 0 -8 3 -13 7 -13 23 4 43
-2 38 -11 -3 -5 3 -10 14 -10 22 0 81 -31 81 -43 0 -5 4 -5 10 -2 5 3 10 0 10
-7 0 -9 3 -9 10 2 7 12 10 12 10 1 0 -7 6 -11 14 -8 10 4 13 1 10 -8 -4 -9 1
-12 13 -10 10 1 25 -4 35 -12 9 -8 27 -13 40 -11 16 2 23 -2 22 -13 -1 -12 6
-15 28 -13 19 3 31 -2 34 -11 4 -8 10 -13 14 -10 5 3 12 1 15 -5 5 -8 11 -8
20 0 10 8 15 8 21 -1 5 -8 3 -10 -7 -4 -11 6 -12 5 -1 -6 7 -7 23 -14 37 -14
13 -1 32 -8 41 -16 11 -9 15 -9 10 -1 -4 6 -2 12 3 12 6 0 11 -6 11 -14 0 -9
10 -12 30 -10 16 2 32 -2 36 -8 5 -7 3 -8 -6 -3 -8 5 -11 4 -7 -3 4 -5 15 -9
25 -7 9 1 23 -3 31 -9 11 -8 13 -8 7 1 -5 9 -2 11 8 7 9 -3 16 -10 16 -15 0
-5 3 -8 8 -8 4 1 9 0 12 -1 3 -1 19 -3 36 -4 18 -1 39 -10 49 -19 19 -20 30
-22 19 -5 -5 8 0 9 17 5 13 -4 28 -7 32 -7 5 0 6 -4 3 -8 -4 -8 17 -12 63 -12
13 0 31 -6 39 -12 13 -10 14 -10 8 0 -4 6 -3 12 3 12 5 0 11 -4 13 -9 2 -6 21
-11 43 -13 22 -2 43 -7 47 -13 5 -6 8 -4 8 5 0 13 1 13 10 0 6 -9 10 -11 10
-3 0 7 7 10 15 7 8 -4 12 -11 8 -18 -3 -6 -3 -8 2 -4 4 4 16 3 26 -3 15 -8 17
-6 12 8 -6 16 -5 16 10 4 10 -8 20 -11 24 -8 3 4 12 2 20 -4 10 -9 13 -8 13 2
0 9 3 10 8 4 10 -14 45 -16 54 -2 6 9 8 9 8 1 0 -7 16 -11 40 -10 27 1 42 -4
45 -14 5 -13 7 -13 15 0 8 12 10 12 10 1 0 -11 3 -11 15 -1 8 7 15 8 15 3 0
-5 26 -9 58 -8 31 1 65 -3 76 -8 10 -5 16 -5 13 0 -6 10 134 10 151 0 6 -4 14
-3 17 3 5 8 12 7 23 -2 9 -7 13 -8 10 -3 -4 6 40 10 125 9 79 -1 137 3 145 9
10 8 16 7 22 -4 8 -11 12 -11 25 6 11 15 13 16 9 3 -6 -17 18 -20 33 -3 4 4 2
5 -6 0 -9 -5 -12 -4 -7 3 4 6 21 8 43 5 24 -4 34 -3 30 4 -8 13 25 12 34 -1 4
-4 16 -3 28 3 13 7 21 8 21 2 0 -6 7 -8 15 -5 8 4 12 11 8 18 -5 7 -2 7 8 -1
12 -10 20 -9 39 4 17 12 21 13 15 2 -7 -12 -6 -12 7 -1 12 9 18 10 23 2 5 -8
14 -6 28 7 11 10 18 13 14 7 -4 -7 4 -11 22 -10 16 1 29 6 28 11 -1 6 6 9 17
7 12 -2 16 1 11 10 -6 10 -5 10 5 1 8 -7 22 -8 40 -3 16 5 31 6 34 2 3 -3 6 1
6 9 0 12 2 12 10 -1 8 -12 10 -12 16 3 5 15 9 15 22 5 13 -11 14 -11 7 1 -6
11 -3 13 13 9 12 -4 25 -2 28 3 3 5 10 7 15 4 5 -4 9 -1 9 6 0 7 3 9 7 6 3 -4
12 -2 20 4 10 9 13 8 13 -1 0 -10 3 -10 15 0 8 6 19 9 25 5 6 -4 9 -1 8 6 -3
13 2 15 55 17 18 1 26 6 21 13 -5 8 1 10 18 7 13 -2 30 1 36 9 11 11 49 18 75
14 5 -1 6 3 2 9 -3 5 0 10 9 10 8 0 17 6 19 13 4 9 6 8 6 -2 1 -11 4 -11 16
-1 8 7 15 9 15 6 0 -4 7 0 16 9 10 10 24 13 36 9 14 -4 18 -2 14 5 -4 6 -4 11
1 12 35 3 59 12 66 24 4 9 12 13 18 10 9 -6 52 19 45 26 -2 2 9 5 26 5 17 1
34 7 38 14 4 7 12 10 18 6 5 -3 13 1 16 10 4 9 13 14 22 10 8 -3 12 -2 9 4 -3
6 1 10 9 10 9 0 16 4 16 9 0 6 9 8 20 6 11 -2 18 0 15 4 -2 5 9 14 25 21 16 7
28 16 25 20 -3 4 8 7 24 6 16 -1 29 0 29 3 -2 20 3 31 12 26 6 -3 10 -1 10 5
0 7 7 9 16 6 8 -3 12 -2 9 4 -6 9 2 12 22 9 3 0 10 6 15 14 5 9 17 14 29 12
17 -3 19 -2 9 10 -10 12 -8 13 9 10 12 -2 20 1 18 8 -1 6 7 13 18 15 11 2 28
13 38 23 10 10 22 19 28 19 6 0 8 4 5 8 -2 4 4 9 15 9 22 2 51 27 42 37 -4 3
1 6 11 6 9 0 19 7 22 15 4 8 10 12 15 9 5 -3 9 0 9 5 0 6 7 11 15 11 8 0 20 9
27 20 7 11 18 20 25 20 7 0 13 7 13 16 0 8 4 13 10 9 5 -3 23 9 40 26 16 18
30 28 30 24 0 -4 10 4 23 18 12 15 29 27 36 27 8 0 11 6 7 16 -5 13 -2 15 13
11 13 -3 18 0 15 7 -3 7 6 21 18 32 22 18 22 18 8 0 -14 -18 -14 -18 7 -6 12
8 19 18 17 22 -3 4 0 8 6 8 6 0 9 4 6 9 -3 4 6 13 20 20 14 6 22 16 19 21 -4
6 1 7 11 3 12 -4 15 -3 10 5 -4 7 -1 12 9 12 9 0 13 5 10 10 -3 6 0 10 8 10 8
0 21 8 28 18 13 16 13 16 -6 2 -18 -14 -19 -14 -7 2 8 10 22 20 33 23 11 4 17
10 14 15 -8 13 53 72 66 64 8 -4 9 -3 5 5 -5 7 8 27 33 50 22 21 38 41 35 44
-3 3 4 8 15 12 12 4 18 12 14 21 -3 9 0 14 8 12 7 -2 13 2 14 9 0 7 9 19 20
28 11 9 13 14 5 10 -8 -4 -6 1 5 10 11 9 19 21 18 26 -2 5 3 9 11 9 8 0 17 11
20 25 4 16 11 23 18 19 7 -5 9 -2 5 9 -3 9 -1 19 5 23 7 5 8 2 3 -7 -4 -8 1
-5 12 6 12 11 21 22 21 25 0 22 3 30 12 25 6 -3 7 1 4 9 -4 9 0 18 8 21 8 3
26 20 38 38 18 25 19 29 5 17 -18 -14 -18 -14 0 12 11 15 27 28 35 28 12 1 12
3 1 7 -11 4 -8 10 10 25 13 11 18 17 12 13 -9 -4 -11 -1 -7 9 3 9 10 13 15 10
5 -3 9 2 9 10 0 9 5 16 12 16 6 0 8 3 5 6 -4 4 2 19 12 33 10 14 16 32 14 39
-3 8 1 10 13 5 13 -5 16 -3 11 10 -4 10 -1 17 6 17 8 0 6 4 -3 10 -13 9 -13
10 0 11 8 1 18 1 22 0 4 0 5 6 2 13 -3 8 3 27 13 42 14 22 15 26 3 20 -12 -6
-11 -4 1 6 22 18 41 57 34 68 -5 9 7 14 26 12 3 -1 4 11 1 25 -4 20 -2 24 8
18 9 -5 11 -4 6 3 -4 7 -3 12 2 12 5 0 9 7 9 16 0 14 -2 14 -14 -2 -8 -11 -17
-19 -21 -19 -4 0 -6 -3 -5 -7 2 -5 -1 -8 -6 -8 -5 0 -8 -8 -7 -17 0 -10 -5
-17 -12 -15 -7 1 -12 -4 -10 -12 2 -8 -1 -15 -6 -14 -14 0 -28 -31 -20 -44 5
-8 2 -9 -9 -5 -9 3 -16 3 -16 -1 1 -4 1 -16 0 -27 -1 -17 -3 -18 -12 -5 -8 12
-10 9 -6 -12 2 -15 1 -26 -2 -24 -3 2 -12 -2 -19 -10 -7 -8 -10 -14 -5 -14 4
0 -1 -6 -12 -13 -11 -9 -15 -19 -10 -27 5 -9 4 -11 -3 -6 -7 4 -12 2 -12 -4 0
-6 -4 -9 -9 -6 -4 3 -7 -5 -6 -18 2 -17 -2 -23 -14 -22 -10 1 -15 -5 -13 -16
2 -13 -2 -16 -14 -11 -12 5 -15 3 -9 -6 4 -8 2 -17 -6 -22 -8 -4 -14 -12 -14
-16 0 -11 -48 -59 -56 -56 -4 1 -6 -5 -5 -15 0 -9 -5 -16 -12 -14 -8 1 -11 -2
-7 -8 3 -5 1 -10 -5 -10 -6 0 -8 -4 -5 -10 3 -5 -2 -10 -11 -10 -10 0 -14 -3
-11 -6 7 -7 -30 -44 -45 -44 -4 0 -7 -3 -7 -7 3 -18 -2 -36 -7 -30 -4 4 -24
-11 -44 -33 -21 -22 -43 -40 -49 -40 -6 0 -8 -8 -4 -17 3 -10 3 -15 -1 -11 -8
7 -96 -78 -96 -93 0 -4 -8 -6 -17 -2 -10 3 -15 3 -11 -1 7 -9 -46 -66 -62 -66
-6 0 -9 -3 -7 -7 2 -5 -9 -19 -26 -33 -17 -14 -27 -18 -22 -10 7 12 6 13 -7 3
-8 -7 -19 -9 -24 -5 -4 4 -2 -1 5 -10 9 -12 10 -18 2 -18 -15 0 -57 -43 -53
-54 2 -5 -5 -3 -15 4 -10 8 -15 11 -11 6 10 -12 -28 -49 -43 -41 -7 5 -10 4
-5 -3 3 -6 -3 -13 -14 -17 -11 -3 -20 -11 -20 -16 0 -5 -7 -9 -15 -9 -8 0 -14
-5 -12 -12 1 -7 -7 -12 -18 -13 -11 0 -19 -5 -18 -12 1 -6 -4 -14 -13 -17 -10
-4 -13 -2 -8 6 4 7 3 8 -4 4 -7 -4 -12 -14 -12 -23 0 -9 -3 -14 -6 -10 -8 8
-33 -16 -27 -26 3 -5 -5 -3 -18 3 -13 7 -21 9 -17 6 9 -10 -23 -46 -40 -46 -7
0 -11 -4 -8 -9 3 -5 -2 -8 -12 -7 -10 0 -16 -5 -14 -13 2 -9 -3 -11 -13 -7 -9
3 -18 -1 -21 -9 -4 -8 -15 -15 -25 -15 -10 0 -19 -6 -19 -13 0 -7 -10 -13 -21
-14 -12 -1 -27 -7 -33 -14 -8 -9 -7 -10 3 -4 9 5 12 4 7 -3 -3 -6 -15 -9 -25
-7 -15 3 -19 -1 -16 -17 3 -16 1 -17 -10 -8 -9 8 -15 8 -20 0 -3 -6 -11 -8
-16 -5 -5 4 -9 -1 -9 -9 0 -9 -3 -15 -7 -14 -16 3 -73 -29 -66 -37 5 -4 3 -5
-4 -1 -6 3 -15 1 -19 -5 -4 -8 -9 -7 -15 2 -6 10 -9 7 -9 -11 0 -20 -2 -22
-10 -10 -8 12 -10 12 -10 1 0 -8 -7 -11 -19 -8 -15 4 -18 1 -13 -12 5 -14 4
-14 -11 -2 -16 12 -17 12 -11 -5 4 -10 3 -16 -1 -11 -5 4 -16 0 -26 -9 -10 -9
-27 -14 -39 -11 -11 3 -18 2 -16 -2 3 -4 -4 -12 -14 -19 -14 -9 -21 -8 -30 3
-8 10 -8 15 1 20 6 4 15 1 21 -6 7 -11 8 -10 6 5 -2 13 4 20 19 21 13 1 26 5
30 10 5 4 -1 5 -12 1 -13 -5 -17 -4 -10 3 6 5 21 11 35 13 14 1 25 8 25 15 0
6 4 15 9 20 5 4 6 3 3 -3 -5 -8 2 -11 17 -10 13 0 22 6 19 12 -2 7 1 15 8 20
8 5 10 3 4 -7 -5 -8 2 -5 15 6 15 13 21 15 16 5 -6 -12 -5 -12 6 1 7 9 20 14
28 11 8 -3 12 -1 8 3 -10 10 14 33 29 28 7 -3 13 -1 13 4 0 4 9 14 21 21 17
11 20 11 14 0 -4 -7 3 -2 14 12 11 14 21 21 21 17 0 -4 6 -2 14 5 8 7 11 18 8
23 -3 6 3 3 13 -5 17 -14 18 -13 12 2 -3 10 -1 20 5 24 7 4 8 3 4 -4 -4 -7 -5
-12 -2 -12 9 0 45 38 40 42 -2 3 6 4 18 4 14 -1 27 8 35 24 7 14 13 21 13 17
0 -4 9 -3 20 3 12 7 18 16 13 23 -4 7 2 5 13 -3 10 -8 16 -10 12 -6 -10 12 12
37 25 29 5 -3 7 -2 4 4 -4 5 8 23 26 39 25 22 27 24 12 5 l-20 -25 26 20 c16
11 24 25 21 34 -3 8 -2 12 2 8 5 -4 13 -2 20 3 6 5 20 17 31 25 11 9 14 12 6
8 -9 -5 -12 -3 -7 4 4 7 12 12 18 12 6 0 28 18 49 39 20 22 41 37 45 33 5 -4
2 1 -5 11 -12 15 -12 17 1 12 9 -4 18 1 21 9 4 9 13 16 21 16 10 0 13 6 10 15
-4 9 0 15 10 15 9 0 16 7 16 15 0 8 5 15 10 15 6 0 10 9 10 20 0 13 5 18 15
14 10 -4 15 0 15 11 0 9 5 13 10 10 9 -6 14 8 11 28 -1 5 3 6 9 2 5 -3 10 -1
10 5 0 6 5 8 12 4 6 -4 8 -3 4 4 -3 6 2 15 11 21 10 6 14 11 9 11 -5 0 3 9 18
21 14 11 26 27 26 34 0 8 9 19 20 25 11 6 20 17 20 24 0 8 10 21 23 30 12 9
16 14 10 11 -8 -4 -11 -1 -7 9 3 8 12 12 20 9 10 -4 12 0 8 11 -3 9 -1 16 5
16 6 0 10 6 8 13 -1 6 3 11 10 10 6 -1 14 4 17 13 4 10 1 13 -7 9 -6 -3 -2 2
11 11 12 9 22 21 22 27 0 5 8 16 18 24 9 8 11 11 4 8 -11 -6 -12 -3 -3 14 7
11 17 21 22 21 6 0 8 7 5 16 -3 8 -2 12 4 9 6 -3 10 -1 10 5 0 6 5 8 10 5 6
-3 10 -2 10 4 0 5 -6 12 -12 14 -10 4 -10 6 0 6 7 1 10 6 7 11 -3 6 1 10 9 10
9 0 15 3 14 8 -3 15 22 62 33 62 8 0 8 4 -1 15 -11 13 -10 14 5 9 13 -5 16 -4
11 4 -4 7 -2 12 4 12 6 0 10 6 8 14 -2 8 6 22 17 31 11 9 14 14 8 10 -9 -4
-11 -1 -7 9 3 9 10 14 15 11 4 -3 6 4 4 15 -3 14 1 20 13 20 15 0 15 2 2 10
-13 8 -12 10 3 10 9 0 17 5 17 11 0 5 -6 7 -13 3 -9 -6 -9 -5 0 8 7 8 9 19 5
23 -4 5 2 5 12 1 17 -6 17 -5 5 11 -9 11 -10 14 -1 9 8 -5 12 -1 12 11 0 15 2
16 10 3 13 -21 13 -3 -1 22 -10 18 -9 20 5 15 19 -7 31 9 15 19 -8 5 -9 3 -4
-6 5 -9 4 -11 -4 -6 -15 10 -4 26 17 26 15 0 15 2 2 10 -11 7 -11 10 -2 10 7
0 10 5 7 10 -3 6 1 10 9 10 22 0 20 20 -1 21 -15 0 -15 2 2 9 12 4 27 15 34
24 11 13 11 17 -4 22 -13 5 -14 9 -3 15 11 7 10 11 -2 20 -12 9 -12 10 4 5 15
-5 17 -2 13 14 -3 10 -2 19 2 18 19 -2 31 3 26 12 -4 6 -12 8 -18 4 -7 -3 2 5
18 20 17 14 26 25 21 26 -5 0 -2 8 5 18 13 15 12 16 -2 4 -15 -11 -17 -9 -16
16 1 24 5 28 22 24 20 -4 20 -4 0 11 -19 16 -12 22 20 18 6 -1 1 6 -9 14 -20
15 -20 15 0 15 14 0 16 2 5 9 -11 7 -11 9 0 14 11 4 11 6 1 6 -7 1 -10 6 -6
12 3 6 0 15 -7 20 -11 6 -8 9 8 9 12 0 25 4 28 10 3 6 -1 7 -10 4 -13 -5 -12
0 5 30 11 21 16 35 11 32 -5 -3 -11 3 -14 13 -3 12 0 18 7 15 7 -3 12 5 13 18
2 18 0 20 -7 8 -6 -9 -10 -10 -10 -3 0 7 7 16 15 21 17 9 30 132 14 132 -5 0
-9 5 -9 11 0 5 4 8 9 4 11 -6 7 28 -5 47 -4 7 -3 8 4 4 19 -11 14 5 -5 20 -15
12 -16 13 -2 8 10 -3 20 0 25 7 4 7 3 10 -4 5 -6 -3 -16 2 -21 13 -14 25 -14
42 0 19 5 -10 15 -18 20 -18 6 0 8 4 5 9 -4 5 -3 11 1 14 5 2 3 3 -3 1 -7 -1
-11 8 -10 21 0 14 5 21 11 17 6 -4 3 0 -7 9 -18 18 -13 35 7 19 8 -6 11 -2 11
15 0 13 -4 21 -8 19 -5 -3 -5 -10 -2 -16 4 -7 2 -8 -4 -4 -6 4 -8 14 -5 23 4
9 2 14 -3 10 -11 -6 -13 37 -3 48 4 3 6 -1 5 -11 0 -9 6 -19 14 -21 13 -4 13
-3 1 5 -13 9 -13 13 0 28 12 15 12 17 0 9 -11 -6 -13 -4 -8 8 3 9 1 19 -5 23
-6 4 -8 3 -5 -3 4 -6 0 -16 -7 -22 -10 -9 -16 -9 -21 -1 -4 6 -1 9 6 8 7 -2
14 3 15 10 1 6 3 14 4 17 8 15 3 105 -5 105 -5 0 -3 5 5 10 12 8 12 10 -5 11
l-20 0 20 9 c11 5 14 9 6 9 -11 1 -11 4 0 18 8 9 10 14 4 11 -5 -3 -17 1 -25
10 -13 14 -12 15 2 10 16 -7 35 19 23 30 -3 3 -5 0 -5 -6 0 -7 -4 -12 -9 -12
-5 0 -7 10 -3 22 4 16 2 19 -9 13 -11 -6 -12 -5 -1 6 15 16 16 33 0 23 -8 -5
-8 -3 -2 7 11 17 13 59 2 53 -4 -3 -8 -1 -8 5 0 5 6 12 13 14 9 4 9 6 -1 6 -7
1 -10 5 -7 11 3 6 -1 7 -9 4 -16 -6 -17 -29 -3 -51 5 -7 4 -13 0 -13 -5 0 -9
-32 -10 -71 0 -44 -6 -74 -13 -79 -9 -6 -9 -9 1 -13 12 -4 12 -7 0 -18 -12
-12 -13 -12 -6 0 6 10 4 12 -4 7 -8 -6 -9 -12 -2 -20 6 -7 8 -16 5 -19 -3 -3
-6 -22 -6 -42 0 -19 -7 -42 -15 -50 -8 -9 -10 -15 -3 -15 7 0 8 -6 2 -17 -5
-10 -8 -28 -6 -40 2 -13 -1 -23 -6 -23 -7 0 -7 -7 0 -20 10 -18 7 -24 -12 -22
-3 1 -9 -5 -12 -13 -3 -8 0 -15 6 -15 7 0 6 -5 -2 -15 -7 -8 -9 -15 -6 -15 4
0 1 -10 -5 -22 -10 -20 -10 -22 2 -13 8 6 7 3 -2 -6 -10 -9 -15 -27 -14 -47 2
-17 -1 -29 -6 -26 -5 3 -9 2 -10 -3 -4 -38 -12 -70 -20 -78 -5 -5 -9 -17 -9
-26 0 -10 -6 -20 -12 -22 -10 -4 -10 -6 0 -6 10 -1 7 -9 -7 -30 -12 -16 -18
-36 -15 -45 3 -9 1 -16 -5 -16 -6 0 -10 -3 -10 -7 4 -22 -2 -33 -13 -27 -9 5
-9 2 1 -9 9 -12 10 -17 2 -17 -7 0 -9 -5 -6 -10 3 -5 1 -10 -5 -10 -6 0 -8 -4
-5 -10 3 -5 2 -10 -4 -10 -6 0 -8 -6 -5 -14 3 -8 -3 -22 -14 -32 -11 -9 -18
-23 -15 -30 3 -8 -2 -17 -11 -20 -14 -5 -14 -9 -4 -23 7 -9 8 -13 4 -9 -11 9
-38 -40 -30 -53 3 -5 0 -9 -5 -9 -6 0 -17 -16 -25 -35 -8 -19 -21 -35 -28 -35
-10 0 -10 -2 1 -9 11 -7 10 -11 -7 -20 -13 -7 -19 -17 -16 -26 4 -9 -1 -18
-11 -21 -9 -4 -14 -12 -11 -20 6 -14 -17 -37 -28 -27 -3 4 -5 -4 -4 -18 2 -17
-1 -23 -12 -21 -8 2 -12 0 -8 -4 4 -4 2 -14 -5 -22 -10 -13 -9 -14 3 -7 13 8
13 6 1 -8 -7 -9 -18 -14 -24 -10 -6 3 -7 1 -3 -6 9 -13 -18 -43 -30 -33 -5 4
-3 0 3 -8 8 -11 8 -18 -2 -27 -7 -6 -16 -9 -21 -5 -4 4 -4 -1 0 -12 4 -13 2
-17 -8 -13 -10 4 -13 -1 -11 -19 1 -14 0 -22 -3 -20 -5 5 -32 -19 -32 -29 0
-3 -11 -16 -24 -28 -13 -12 -22 -30 -21 -39 2 -10 -2 -15 -10 -12 -7 3 -16 0
-21 -7 -5 -8 -3 -10 7 -5 8 4 3 -2 -10 -13 -13 -12 -19 -21 -15 -21 5 0 1 -5
-9 -11 -9 -6 -15 -15 -11 -20 3 -5 2 -9 -3 -8 -20 3 -34 -2 -28 -11 3 -5 -1
-10 -11 -10 -14 0 -15 -2 -3 -17 8 -9 10 -14 4 -11 -5 3 -19 -4 -30 -15 -11
-11 -14 -16 -6 -12 9 5 12 4 7 -3 -4 -7 -14 -12 -22 -12 -8 0 -13 -4 -10 -9 3
-5 -1 -12 -10 -15 -8 -3 -12 -11 -8 -17 4 -7 3 -9 -3 -6 -6 4 -19 -5 -29 -18
-10 -14 -24 -25 -31 -25 -8 0 -10 -7 -6 -17 3 -10 3 -15 -2 -11 -4 4 -21 -7
-38 -25 -16 -18 -35 -31 -41 -29 -6 2 -8 1 -4 -3 8 -8 -16 -35 -31 -35 -6 0
-7 -7 -4 -17 4 -9 2 -14 -3 -10 -6 3 -17 -3 -24 -14 -8 -10 -20 -19 -28 -19
-7 0 -10 -5 -6 -12 5 -7 2 -9 -9 -5 -9 3 -21 -1 -29 -11 -11 -15 -11 -16 2 -7
9 6 7 2 -5 -8 -11 -9 -31 -27 -45 -39 -14 -12 -28 -21 -32 -20 -5 1 -8 -2 -8
-7 0 -17 -32 -42 -47 -37 -8 4 -11 1 -8 -5 4 -6 -2 -13 -14 -16 -11 -3 -18 -9
-15 -14 5 -9 -11 -13 -31 -9 -5 1 -7 -2 -3 -6 10 -9 -52 -55 -64 -48 -5 3 -7
2 -6 -3 2 -4 0 -8 -4 -8 -4 0 -14 -9 -23 -20 -9 -11 -13 -13 -9 -5 6 11 2 10
-13 -3 -11 -9 -23 -14 -28 -10 -4 5 -5 3 -2 -3 4 -7 -1 -18 -10 -25 -14 -12
-16 -12 -8 1 4 8 -4 4 -18 -9 -15 -14 -27 -20 -27 -15 0 5 -5 2 -10 -6 -5 -8
-17 -15 -27 -15 -10 0 -18 -7 -17 -16 1 -11 -5 -14 -20 -12 -13 3 -29 -4 -40
-16 -10 -11 -24 -17 -34 -14 -10 4 -13 2 -8 -5 4 -7 1 -12 -8 -12 -9 0 -16 -8
-17 -17 0 -16 -1 -16 -8 1 -6 17 -8 17 -14 4 -3 -9 -16 -18 -29 -20 -13 -2
-22 -9 -20 -16 1 -8 -2 -11 -7 -8 -5 4 -12 2 -16 -3 -3 -5 -14 -8 -25 -6 -12
2 -18 0 -15 -4 3 -5 -2 -12 -11 -15 -9 -4 -13 -2 -8 5 3 6 -5 4 -18 -5 -14 -9
-28 -13 -33 -9 -4 5 -6 3 -2 -2 3 -6 -6 -15 -19 -22 -18 -8 -23 -8 -18 0 3 7
-2 3 -10 -7 -9 -11 -16 -16 -16 -12 0 5 -8 2 -17 -5 -9 -8 -14 -9 -10 -3 3 6
-1 11 -9 11 -8 0 -13 -6 -10 -14 3 -8 0 -13 -7 -12 -31 4 -48 -2 -41 -14 5 -8
2 -8 -9 2 -15 12 -17 11 -17 -4 0 -14 -3 -15 -15 -5 -12 10 -16 9 -21 -4 -5
-14 -9 -14 -22 -4 -10 8 -13 8 -9 2 8 -14 -9 -22 -45 -20 -14 1 -24 -2 -22 -6
7 -11 -11 -18 -60 -20 -33 -2 -45 -7 -41 -16 3 -7 1 -11 -4 -7 -5 3 -12 -1
-15 -7 -3 -7 -3 -2 0 11 l6 24 -22 -21 c-18 -16 -27 -19 -41 -11 -18 9 -24 5
-19 -16 1 -5 -1 -7 -5 -3 -4 4 -18 3 -31 -2 -16 -7 -24 -6 -24 1 0 8 -5 8 -15
-1 -8 -6 -19 -9 -25 -5 -5 3 -10 1 -10 -6 0 -8 -7 -6 -23 4 -19 12 -24 13 -24
2 0 -8 5 -11 10 -8 6 3 7 1 3 -5 -4 -7 -17 -10 -29 -8 -12 2 -31 0 -43 -4 -11
-5 -27 -4 -35 0 -10 6 -26 4 -43 -5 -14 -8 -24 -10 -21 -5 9 14 -9 12 -24 -3
-11 -10 -12 -9 -6 3 7 12 6 13 -6 3 -8 -6 -27 -10 -42 -9 -15 2 -27 0 -27 -3
0 -3 -47 -6 -105 -5 -68 0 -105 -3 -105 -10 0 -6 -4 -5 -9 2 -11 17 -21 17
-32 0 -5 -7 -9 -8 -9 -2 0 14 -83 15 -92 0 -5 -7 -8 -7 -8 0 0 7 -26 10 -71
10 -39 -1 -76 2 -81 5 -6 4 -24 3 -40 -2 -24 -6 -28 -5 -19 5 8 10 6 12 -9 11
-11 -1 -23 -5 -27 -10 -5 -4 -2 -5 6 0 10 6 12 4 6 -5 -6 -10 -11 -9 -21 4 -8
11 -14 13 -19 7 -3 -6 -12 -11 -18 -11 -8 0 -7 3 2 9 9 6 0 10 -28 13 -22 2
-41 0 -41 -5 0 -4 -8 -4 -17 1 -10 5 -26 8 -36 6 -14 -2 -17 2 -13 14 5 15 4
15 -8 -1 -11 -14 -15 -15 -19 -4 -4 10 -19 14 -46 13 -23 -1 -41 1 -41 5 0 4
-9 5 -19 2 -13 -3 -21 1 -24 14 -4 17 -5 17 -6 -1 -1 -20 -1 -20 -17 0 -8 10
-12 13 -8 5 5 -10 3 -12 -7 -6 -7 5 -27 10 -43 12 -17 2 -32 7 -36 12 -3 5
-19 8 -37 7 -17 -1 -30 1 -27 5 2 4 0 10 -6 14 -5 3 -10 0 -10 -7 0 -9 -3 -9
-10 2 -6 9 -21 14 -40 12 -21 -3 -30 1 -30 11 0 10 -11 14 -35 12 -21 -1 -42
5 -53 16 -14 12 -23 14 -37 7 -12 -7 -16 -7 -11 0 3 5 -2 16 -11 23 -14 12
-16 12 -8 -1 8 -13 7 -13 -11 0 -10 8 -22 20 -26 25 -4 6 -8 2 -8 -7 0 -16 -2
-16 -20 2 -11 11 -26 17 -35 14 -8 -4 -15 -1 -15 5 0 6 -7 11 -16 11 -9 0 -12
5 -8 12 5 7 3 8 -5 3 -8 -4 -26 2 -44 16 -19 13 -26 16 -18 6 18 -23 9 -21
-19 3 -13 11 -32 20 -42 20 -10 0 -21 6 -24 14 -3 8 -14 13 -24 11 -12 -2 -21
4 -26 17 -5 16 -8 18 -15 7 -7 -11 -9 -10 -9 4 0 9 -5 17 -11 17 -5 0 -7 -6
-3 -12 4 -7 -2 -5 -14 5 -12 11 -26 16 -33 11 -8 -4 -10 -3 -5 5 4 6 0 14 -11
18 -10 4 -21 10 -24 15 -3 5 -15 10 -27 11 -11 0 -19 4 -17 7 1 3 -3 11 -11
18 -8 7 -14 10 -14 7 0 -4 -7 1 -16 9 -8 9 -20 14 -25 11 -5 -4 -9 1 -9 10 0
9 -5 13 -10 10 -6 -3 -14 4 -19 17 -7 17 -10 19 -10 6 -1 -16 -3 -16 -21 2
-12 12 -18 26 -14 33 5 9 4 9 -6 0 -15 -14 -40 -6 -40 13 0 8 -9 14 -21 14
-11 0 -17 4 -14 10 3 5 0 10 -7 10 -8 0 -20 9 -28 19 -7 11 -18 17 -24 14 -5
-4 -7 1 -2 12 6 16 4 16 -11 4 -11 -9 -14 -10 -9 -1 4 7 2 12 -4 12 -6 0 -9 4
-5 9 3 5 -10 15 -29 22 -19 7 -33 15 -32 18 6 10 -21 30 -30 23 -4 -4 -4 1 -1
10 4 12 2 15 -9 11 -8 -3 -14 1 -14 11 0 9 -7 16 -16 16 -9 0 -18 9 -21 20 -3
11 -9 17 -14 14 -5 -3 -9 2 -9 10 0 9 -5 16 -11 16 -6 0 -20 12 -31 26 -12 14
-27 23 -35 20 -8 -3 -12 -2 -9 3 3 5 -5 22 -19 38 -13 15 -32 37 -42 49 -10
11 -26 23 -36 27 -9 4 -22 18 -27 32 -5 14 -14 25 -20 25 -6 0 -8 5 -5 10 3 6
-1 10 -9 10 -9 0 -16 9 -16 21 0 11 -5 17 -10 14 -6 -3 -10 0 -10 7 0 7 -9 19
-20 26 -12 7 -18 17 -15 22 3 6 -2 10 -12 10 -15 0 -16 2 -3 10 13 8 12 10 -3
10 -11 0 -21 9 -24 20 -3 11 -9 20 -14 20 -5 0 -9 8 -9 19 0 10 -8 25 -18 32
-14 11 -15 11 -4 -1 6 -8 12 -18 12 -24 0 -18 -29 29 -30 47 0 10 -4 15 -10
12 -5 -3 -10 3 -10 15 0 12 -5 18 -10 15 -6 -3 -10 0 -10 7 0 7 -9 19 -20 26
-11 7 -17 18 -14 27 4 8 -1 17 -10 21 -9 3 -16 15 -16 26 0 10 -5 16 -10 13
-6 -3 -10 5 -10 18 0 14 -7 27 -15 31 -8 3 -15 15 -15 26 0 12 -5 18 -10 15
-6 -3 -11 -1 -11 4 -1 6 -2 16 -3 21 0 6 -5 14 -11 18 -5 4 -12 16 -13 27 -2
11 -11 28 -19 37 -8 9 -12 22 -7 29 4 7 3 10 -2 6 -6 -3 -16 3 -23 15 -10 16
-10 19 1 12 7 -4 4 2 -6 14 -11 12 -15 22 -11 22 5 0 0 7 -11 16 -10 8 -13 13
-7 9 9 -4 11 -1 7 9 -3 9 -10 13 -15 10 -5 -3 -9 9 -9 26 0 20 -4 29 -11 24
-7 -4 -10 2 -8 17 4 29 -9 52 -23 43 -7 -5 -9 -1 -5 9 4 10 2 17 -5 17 -7 0
-7 4 0 12 7 9 6 17 -3 25 -7 6 -15 10 -18 7 -3 -3 -5 1 -4 8 1 36 -4 59 -13
53 -6 -3 -7 1 -4 9 4 9 1 16 -6 16 -10 0 -10 3 -1 14 10 11 8 17 -6 25 -11 6
-13 11 -5 11 10 0 9 4 -3 16 -9 9 -14 22 -11 30 3 7 -2 18 -9 24 -8 7 -12 16
-9 21 3 5 0 9 -7 9 -8 0 -8 4 1 15 10 12 10 15 0 15 -9 0 -9 4 1 17 8 9 10 14
4 11 -14 -8 -38 19 -24 27 7 5 7 11 0 19 -6 7 -8 16 -4 19 3 4 0 13 -7 22 -7
8 -9 15 -4 15 5 0 3 4 -4 8 -7 5 -13 29 -14 55 0 26 -5 47 -10 47 -6 0 -4 8 3
17 8 9 9 14 3 10 -16 -10 -25 18 -11 33 9 10 9 11 -2 5 -11 -6 -13 -2 -7 19 5
20 3 26 -5 21 -8 -6 -8 -2 0 13 8 15 8 23 -1 28 -7 5 -8 3 -3 -6 5 -9 4 -11
-4 -6 -6 4 -9 19 -6 34 2 14 0 29 -6 33 -8 5 -8 13 0 28 8 14 8 21 1 21 -7 0
-7 7 1 21 9 17 8 20 -2 14 -9 -6 -11 -3 -6 8 3 9 2 19 -3 22 -6 4 -6 14 1 27
10 18 9 20 -6 14 -15 -5 -16 -4 -5 9 10 12 10 15 -1 15 -12 0 -12 2 0 9 11 7
11 9 0 14 -12 4 -11 7 1 16 8 6 10 11 5 11 -6 0 -11 27 -11 60 -1 38 3 57 9
53 6 -4 7 -1 1 8 -12 19 -13 149 0 142 5 -4 6 -1 0 8 -12 20 -13 59 -1 59 5 0
3 8 -4 17 -12 14 -12 16 0 8 11 -6 13 -4 8 8 -4 10 -1 17 6 17 8 0 6 4 -3 10
-12 8 -12 10 -1 10 8 0 11 3 8 6 -3 4 -2 16 4 27 6 10 7 17 1 13 -9 -5 -8 66
2 82 2 4 1 14 -4 22 -5 9 -5 19 2 27 6 7 7 13 2 13 -4 0 1 7 12 15 16 13 17
16 4 25 -11 7 -11 10 -2 10 10 0 10 5 1 21 -6 12 -7 19 -2 16 6 -4 10 8 11 25
0 17 7 35 14 39 10 7 10 9 -2 9 -12 1 -11 3 3 14 14 11 15 15 5 19 -8 3 -9 6
-1 6 6 1 9 10 6 21 -7 25 5 72 16 66 5 -3 7 9 6 27 -2 19 4 40 14 51 9 11 10
16 4 12 -7 -4 -13 -2 -13 3 0 6 5 11 11 11 6 0 9 7 5 15 -3 8 -1 15 5 15 5 0
7 11 5 24 -3 16 1 27 11 30 13 5 13 9 2 23 -10 12 -10 14 -2 9 9 -5 13 1 13
21 0 15 7 37 15 47 12 16 12 22 2 28 -9 6 -9 8 1 8 6 0 12 7 12 15 0 8 4 15 9
15 5 0 8 11 7 25 -2 13 0 22 4 20 9 -5 24 43 21 63 -1 7 4 11 11 10 8 -2 13 9
13 34 -1 20 3 34 7 32 4 -3 13 -2 19 2 8 4 7 9 -2 15 -11 7 -11 9 -1 9 7 0 11
4 8 9 -3 4 2 17 10 27 9 10 12 13 8 5 -5 -9 -3 -12 4 -7 9 5 9 13 2 27 -8 14
-8 19 2 17 6 -2 13 3 14 10 1 6 3 15 4 20 1 4 2 11 1 16 -1 5 4 6 12 3 10 -4
13 2 11 19 -1 16 3 24 12 24 9 0 12 5 9 10 -3 6 -2 10 4 10 6 0 8 7 5 15 -4
10 0 15 11 15 9 0 13 5 10 10 -3 6 3 24 15 40 12 17 18 30 13 30 -4 0 0 5 10
11 9 6 15 14 12 19 -3 4 2 11 11 14 9 4 14 13 10 21 -3 8 -1 15 5 15 6 0 7 5
3 12 -5 7 -2 9 9 5 12 -4 15 -1 12 14 -2 11 0 17 4 14 8 -4 27 27 19 32 -2 1
6 8 16 16 10 8 16 19 12 25 -5 8 -1 10 10 5 12 -4 15 -3 10 5 -4 7 -2 12 4 12
6 0 8 5 5 10 -3 6 -1 10 5 10 6 0 9 3 7 8 -6 9 19 33 27 25 3 -4 6 1 6 11 0
21 25 48 35 38 5 -4 5 -2 2 4 -9 15 22 56 36 48 7 -4 9 -4 5 1 -9 10 18 50 34
50 6 0 12 8 14 18 3 24 24 48 35 41 5 -3 6 3 2 12 -4 12 -3 15 5 10 7 -4 12
-1 12 9 0 9 4 14 9 10 5 -3 12 4 16 15 4 11 11 18 16 15 5 -4 9 1 9 9 0 8 14
24 30 36 17 12 27 27 24 33 -4 7 -4 9 0 5 10 -8 47 23 40 34 -3 5 -2 7 3 6 11
-4 59 45 55 56 -2 5 5 3 14 -5 12 -9 15 -9 10 -1 -4 7 -2 12 4 12 6 0 8 5 5
10 -3 6 1 10 10 10 9 0 13 5 10 10 -6 9 7 14 27 11 4 0 4 7 1 17 -6 15 -5 15
10 3 15 -12 17 -12 12 2 -4 8 -1 18 6 23 8 5 10 3 4 -7 -5 -8 5 0 21 16 16 17
28 34 25 39 -2 5 1 6 7 2 13 -8 52 27 52 47 0 8 4 7 10 -3 9 -14 14 -7 11 13
-1 5 4 7 11 5 6 -2 30 12 51 33 26 24 46 35 56 31 14 -5 14 -4 1 13 -14 17
-14 18 7 6 20 -10 22 -9 16 6 -3 10 -3 15 2 11 4 -4 13 -2 21 5 32 29 40 33
52 29 6 -2 12 3 12 12 0 9 6 15 13 13 6 -1 11 3 10 9 -1 7 6 10 17 7 15 -4 20
0 20 13 0 16 2 17 10 4 7 -12 10 -12 10 -1 0 8 6 11 16 7 13 -5 14 -4 6 7 -9
10 -8 14 3 15 8 1 22 3 30 4 8 1 15 8 15 17 0 14 2 14 10 1 9 -13 14 -7 11 12
0 4 6 5 14 2 8 -4 15 -1 15 6 0 7 6 10 14 7 8 -3 17 1 20 9 3 9 10 12 16 9 5
-3 10 -1 10 5 0 7 8 9 20 5 22 -7 28 10 8 19 -7 4 -3 4 9 2 13 -2 26 0 29 6 3
5 12 7 20 4 8 -3 11 0 8 8 -4 10 3 13 25 11 23 -2 28 1 23 13 -4 11 -1 14 11
9 10 -4 17 -1 17 6 0 8 4 6 10 -3 9 -14 15 -7 11 14 -1 5 5 4 13 -4 13 -10 16
-10 16 3 0 10 7 15 20 12 11 -2 20 0 20 4 0 10 38 24 58 22 6 -1 12 3 12 8 0
6 7 7 17 4 10 -4 14 -2 10 4 -5 8 3 10 23 7 23 -4 30 -1 30 12 0 12 6 15 25
12 14 -3 25 -1 25 4 0 5 5 6 10 3 6 -3 10 0 10 7 0 11 2 10 9 0 7 -11 9 -11
14 2 4 9 13 13 22 10 8 -4 22 -1 30 6 12 10 15 10 15 -1 0 -9 3 -10 8 -3 8 13
60 28 85 25 9 -1 17 3 17 9 0 6 5 8 10 5 6 -3 10 -2 10 3 0 13 30 11 30 -2 0
-6 5 -3 11 7 7 12 15 15 27 8 11 -6 20 -4 30 7 7 10 11 11 7 5 -3 -7 -2 -13 3
-13 6 0 13 8 16 17 6 15 8 15 16 3 9 -13 10 -13 10 0 0 13 1 13 10 0 9 -13 10
-13 10 0 0 13 1 13 10 0 5 -8 10 -10 10 -5 0 6 9 11 20 12 11 1 18 -2 15 -8
-4 -5 -1 -9 4 -9 6 0 11 8 11 18 0 13 2 14 9 4 6 -10 10 -10 21 3 10 12 16 13
28 3 12 -10 14 -10 9 -1 -6 9 2 11 28 9 20 -1 38 1 41 6 3 5 12 4 19 -2 9 -8
20 -8 32 -2 12 7 25 7 36 1 11 -7 17 -6 17 1 0 5 7 10 16 10 8 0 12 -5 8 -11
-4 -8 -1 -8 12 -2 23 11 34 11 53 -1 10 -6 12 -5 7 3 -5 8 1 10 23 6 26 -4 30
-2 25 12 -3 10 2 7 10 -7 8 -14 15 -19 16 -12 0 9 8 12 28 8 15 -3 33 -2 41 3
14 9 53 3 47 -8 -6 -9 97 -7 112 2 6 5 12 5 12 0 0 -4 32 -8 71 -9 46 -1 74
-5 79 -14 6 -10 9 -8 13 6 3 14 5 15 6 3 1 -12 11 -16 44 -15 23 1 48 -2 55
-7 7 -6 12 -6 12 0 0 5 7 10 15 10 8 0 12 -4 9 -9 -3 -4 4 -8 15 -8 10 0 22
-6 24 -12 4 -9 6 -10 6 -1 1 8 10 9 29 5 15 -4 36 -7 47 -7 11 0 23 -4 27 -9
4 -6 24 -11 45 -13 54 -2 84 -13 76 -27 -4 -6 2 -4 12 4 10 8 16 10 12 3 -5
-8 0 -12 15 -11 40 2 49 -2 42 -14 -5 -8 -2 -9 11 -4 10 4 28 0 43 -10 13 -9
21 -11 18 -5 -4 6 0 11 9 11 9 0 13 -4 10 -10 -4 -6 5 -10 19 -10 14 0 26 -5
26 -11 0 -8 5 -8 15 1 14 12 20 7 15 -15 -1 -5 2 -7 5 -3 4 4 17 3 28 -3 12
-7 17 -7 13 -1 -3 6 4 5 18 -1 13 -7 22 -16 19 -21 -4 -5 1 -7 10 -3 20 8 49
-2 42 -13 -3 -5 -1 -11 4 -14 5 -4 13 -1 17 5 5 8 3 9 -6 4 -9 -6 -11 -4 -5 5
7 11 10 10 19 -1 6 -8 18 -14 26 -14 8 0 18 -4 22 -10 4 -5 12 -11 18 -11 5
-1 15 -2 21 -3 5 0 7 -5 4 -11 -3 -6 1 -7 9 -4 9 3 16 2 16 -4 0 -5 8 -9 18
-8 9 0 16 -4 15 -10 -1 -6 4 -11 12 -11 8 0 12 5 9 11 -3 6 2 2 10 -8 9 -11
16 -16 16 -11 0 5 7 0 15 -11 11 -14 15 -16 15 -4 1 12 3 12 14 -2 7 -10 21
-18 30 -18 9 0 16 -5 16 -11 0 -5 5 -7 12 -3 7 5 9 2 5 -9 -4 -12 -1 -15 14
-12 12 2 26 0 32 -6 49 -40 62 -49 74 -49 9 0 11 -5 7 -12 -4 -7 -4 -10 1 -6
4 4 15 2 23 -5 13 -10 14 -9 7 2 -6 10 -4 12 4 7 7 -5 10 -14 7 -21 -3 -8 2
-11 14 -8 10 3 21 -1 25 -8 6 -8 4 -10 -5 -4 -9 5 -11 4 -6 -3 4 -7 16 -12 27
-12 10 0 19 -4 19 -10 0 -5 7 -10 15 -10 8 0 19 -10 26 -21 9 -17 13 -19 20
-8 6 10 10 8 18 -11 5 -14 10 -21 10 -16 1 6 8 1 17 -10 8 -10 13 -13 9 -7
-10 21 24 3 36 -18 5 -11 14 -17 20 -14 5 4 9 -1 9 -9 0 -8 9 -18 20 -21 11
-3 20 -11 20 -16 0 -6 5 -7 10 -4 6 3 10 1 10 -5 0 -17 28 -42 39 -35 5 3 13
0 17 -6 4 -8 3 -9 -4 -5 -7 4 -12 2 -12 -3 0 -6 6 -11 13 -11 17 0 87 -64 87
-79 0 -7 5 -9 11 -6 6 4 13 -2 16 -14 3 -12 10 -21 15 -21 14 0 58 -47 50 -55
-4 -4 -2 -5 4 -3 12 3 74 -58 74 -74 0 -5 5 -6 11 -3 6 4 13 -2 16 -14 3 -11
9 -18 14 -15 5 3 9 0 9 -5 0 -6 0 -13 0 -16 0 -14 54 -64 64 -58 6 3 8 3 4 -2
-4 -4 0 -14 8 -22 8 -8 12 -19 9 -24 -4 -5 0 -6 8 -3 8 3 18 0 23 -7 4 -8 3
-10 -4 -5 -7 4 -12 2 -12 -3 0 -6 7 -11 15 -11 16 0 38 -34 28 -44 -6 -6 13
-10 31 -7 5 1 4 -5 -4 -13 -12 -16 -4 -22 23 -17 5 1 6 -3 3 -8 -4 -5 6 -22
21 -37 16 -15 21 -23 13 -18 -9 5 -8 1 3 -8 10 -10 15 -23 11 -29 -4 -7 -3
-10 2 -7 5 3 14 0 21 -7 10 -11 10 -15 0 -18 -7 -3 -1 -6 13 -7 14 -1 20 -4
13 -6 -16 -7 -5 -34 12 -28 8 3 12 -2 12 -13 -1 -11 4 -17 12 -15 12 3 12 0 1
-12 -8 -11 -9 -16 -1 -16 6 0 11 -7 11 -16 0 -9 6 -14 13 -11 8 3 14 -1 14 -9
0 -7 -5 -11 -11 -8 -6 3 0 -4 14 -16 14 -12 18 -18 10 -14 -13 7 -13 5 -1 -9
7 -9 10 -17 6 -17 -5 0 2 -9 14 -19 13 -11 20 -25 16 -30 -3 -6 -1 -11 5 -11
6 0 8 -5 4 -12 -5 -7 -3 -8 5 -3 9 5 12 0 9 -15 -2 -13 3 -25 10 -28 16 -5 12
42 -6 76 -7 12 -10 27 -7 32 3 5 1 11 -5 15 -5 3 -10 1 -10 -6 0 -26 -13 2
-15 33 -2 18 -8 34 -14 36 -6 2 -9 8 -6 12 3 5 -5 18 -17 29 -12 12 -17 21
-11 21 6 0 9 9 6 20 -4 15 -9 18 -18 10 -11 -9 -12 -7 -8 9 3 13 1 21 -8 21
-7 0 -9 3 -6 7 4 3 -1 12 -11 20 -11 10 -12 12 -2 8 8 -4 4 3 -9 14 -13 12
-18 21 -11 21 8 0 5 7 -7 18 -11 9 -19 25 -17 34 1 10 -3 16 -9 15 -7 -1 -11
3 -10 10 2 8 -4 10 -15 6 -14 -6 -15 -4 -4 9 10 13 10 18 1 24 -8 4 -9 3 -5
-4 4 -7 5 -12 2 -12 -3 0 -10 10 -17 21 -8 16 -8 20 1 14 8 -5 7 0 -2 14 -7
12 -16 21 -20 21 -5 0 -8 7 -8 16 0 8 -5 12 -10 9 -6 -4 -10 -3 -9 2 4 22 -2
43 -11 38 -5 -3 -10 -1 -10 5 0 6 -5 8 -12 4 -9 -5 -9 -2 1 9 8 10 9 17 3 17
-6 0 -13 9 -17 19 -4 13 -12 18 -22 14 -11 -4 -14 -3 -9 6 4 7 -2 20 -16 32
-13 11 -17 18 -11 14 9 -4 11 -1 7 9 -3 9 -10 13 -15 10 -5 -3 -9 2 -9 11 0 9
-4 14 -9 11 -5 -4 -15 7 -22 23 -7 16 -16 28 -20 25 -4 -2 -10 3 -13 12 -4 10
-2 13 7 8 7 -5 7 -1 -2 10 -11 13 -16 14 -23 4 -8 -10 -9 -10 -6 2 3 8 -7 25
-21 38 -14 14 -25 28 -24 33 2 4 -4 6 -13 2 -8 -3 -14 -2 -12 3 2 5 -1 10 -6
11 -5 1 -14 12 -21 25 -6 13 -17 22 -24 20 -7 -1 -10 2 -6 8 3 5 1 10 -5 10
-7 0 -9 7 -6 16 4 10 1 14 -6 12 -16 -6 -82 58 -74 71 5 7 1 8 -10 4 -12 -4
-15 -3 -10 5 4 7 1 12 -8 12 -9 0 -16 7 -16 16 0 8 -4 12 -10 9 -5 -3 -10 -1
-10 4 0 6 -7 11 -15 11 -8 0 -15 7 -15 16 0 9 -5 12 -12 8 -7 -5 -9 -2 -5 9 4
11 2 14 -9 10 -8 -3 -14 1 -14 10 0 9 -5 19 -12 23 -7 5 -8 3 -3 -5 6 -10 3
-11 -14 -2 -11 6 -25 20 -31 31 -6 11 -18 20 -26 20 -8 0 -12 5 -9 10 3 6 -1
10 -9 10 -9 0 -16 3 -16 8 0 4 -10 12 -22 17 -13 6 -22 16 -20 23 1 8 -5 12
-15 10 -11 -2 -17 2 -15 11 2 9 -4 12 -17 8 -14 -3 -18 -1 -14 9 5 13 -14 20
-41 15 -5 -1 -6 7 -3 18 4 18 2 19 -15 10 -15 -8 -19 -8 -14 0 4 6 2 11 -4 11
-6 0 -9 4 -6 8 2 4 -5 9 -17 9 -12 1 -27 9 -33 17 -6 9 -14 13 -17 9 -4 -3 -7
-1 -7 5 0 7 -6 12 -13 12 -8 0 -22 9 -32 20 -10 11 -27 20 -37 20 -11 0 -16 4
-13 10 3 5 0 7 -8 4 -8 -3 -21 2 -30 10 -8 8 -21 17 -28 18 -7 2 -22 11 -33
21 -11 9 -28 17 -38 17 -11 0 -16 5 -13 10 4 6 3 10 -2 9 -20 -4 -44 2 -39 9
2 4 -5 9 -17 9 -24 2 -68 23 -79 37 -3 5 -14 10 -25 11 -28 3 -53 16 -48 25 3
5 -3 7 -12 6 -10 -2 -24 4 -31 13 -10 12 -12 13 -6 1 5 -10 0 -9 -14 4 -17 14
-22 16 -22 5 -1 -9 -8 -5 -20 10 -11 13 -20 18 -20 12 0 -8 -5 -9 -19 -2 -10
6 -21 7 -25 3 -4 -3 -4 1 -1 10 5 13 2 15 -14 11 -13 -3 -21 -1 -21 7 0 7 -8
9 -21 5 -13 -5 -19 -3 -15 3 3 5 -1 12 -9 16 -8 3 -15 0 -15 -6 0 -7 -4 -7
-12 -1 -7 6 -21 9 -30 8 -11 -2 -15 2 -11 13 5 11 2 14 -9 10 -9 -4 -21 -1
-27 5 -8 8 -11 8 -11 0 0 -8 -7 -8 -24 0 -13 7 -23 14 -21 17 2 4 -18 6 -45 5
-37 -1 -47 2 -40 10 7 9 4 12 -12 11 -13 -1 -31 2 -40 6 -10 5 -18 5 -18 0 0
-5 -7 -9 -15 -9 -8 0 -12 4 -9 9 3 4 0 8 -6 8 -6 0 -8 5 -4 13 5 8 2 8 -9 -2
-9 -7 -17 -9 -17 -4 0 6 -21 10 -46 9 -31 -1 -48 3 -55 14 -4 8 -9 11 -9 6 0
-5 -8 -2 -17 5 -15 12 -16 12 -9 -6 6 -16 5 -18 -5 -7 -7 6 -37 12 -67 12 -38
0 -51 3 -46 12 5 7 3 8 -7 2 -20 -12 -40 -14 -33 -3 3 5 10 6 16 3 6 -4 8 -2
4 4 -3 5 -20 8 -37 5 -23 -3 -29 -1 -24 8 6 9 4 9 -6 3 -20 -13 -73 -13 -81 0
-5 8 -8 7 -8 -1 0 -10 -37 -11 -60 -3 -3 2 -9 1 -15 0 -39 -9 -55 -7 -55 8 -1
15 -2 15 -11 -1 -8 -14 -14 -16 -25 -6 -7 6 -20 9 -27 6 -8 -3 -20 -1 -28 3
-9 6 -21 3 -33 -8 -11 -9 -16 -11 -12 -4 5 8 0 12 -13 12 -12 0 -21 -5 -21
-12 0 -6 -7 -3 -16 8 -10 12 -14 13 -11 4 3 -11 -4 -15 -33 -15 -29 -1 -37 3
-33 15 3 10 0 9 -11 -4 -17 -22 -30 -17 -21 7 7 15 21 17 42 4 6 -4 15 -2 19
4 4 8 3 9 -4 5 -7 -4 -12 -2 -12 4 0 7 6 10 13 7 6 -2 11 -11 11 -20 -1 -9 3
-14 8 -11 5 3 7 12 4 20 -3 7 -1 16 4 19 6 4 10 0 10 -7 0 -10 2 -10 9 0 11
18 20 17 37 -5 9 -11 13 -13 12 -4 -2 7 7 15 20 17 12 2 22 -1 22 -6 0 -6 5
-10 11 -10 5 0 8 4 5 8 -6 11 45 9 63 -3 9 -5 12 -4 7 3 -4 7 5 10 24 10 17
-1 33 -5 36 -10 3 -4 11 -5 17 -1 18 12 157 11 150 -1 -4 -5 -1 -6 8 0 20 12
38 14 45 3 3 -5 11 -6 17 -2 17 10 47 11 47 1 0 -5 6 -6 13 -1 18 11 36 12 43
2 3 -5 14 -4 27 2 l22 12 -20 -24 c-11 -13 -13 -19 -5 -13 21 15 52 25 46 15
-3 -5 1 -11 9 -15 8 -3 17 0 21 6 5 7 2 8 -6 3 -9 -6 -11 -4 -5 5 6 10 11 9
22 -5 8 -13 13 -14 13 -5 0 7 3 10 7 7 3 -4 12 -2 20 5 8 6 13 7 12 2 -4 -20
2 -24 21 -14 15 8 20 8 20 -1 0 -8 4 -8 15 1 11 9 15 9 15 1 0 -7 5 -9 10 -6
6 3 10 1 10 -4 0 -6 10 -10 23 -10 12 1 39 -1 60 -4 28 -5 36 -3 30 6 -4 7 0
7 10 -2 9 -7 26 -11 37 -8 11 3 23 0 27 -5 3 -6 1 -8 -5 -4 -6 3 -13 2 -16 -2
-3 -5 7 -8 22 -7 15 1 38 -1 52 -5 14 -4 38 -3 53 1 23 6 26 5 17 -6 -14 -17
3 -23 53 -19 23 2 37 -1 37 -8 0 -6 3 -9 6 -5 4 3 21 -1 38 -10 26 -13 29 -14
19 -1 -7 8 -9 18 -5 22 4 5 0 7 -8 6 -33 -5 -51 0 -44 13 4 6 4 9 -1 5 -4 -4
-15 -3 -25 2 -12 6 -24 4 -41 -7 -23 -16 -23 -16 -10 0 16 21 14 24 -19 29
-14 1 -28 8 -32 13 -5 6 -8 4 -8 -5 0 -9 -3 -11 -8 -5 -16 23 -49 34 -62 22
-10 -9 -11 -9 -6 1 4 6 3 12 -1 12 -5 0 -15 -6 -22 -12 -11 -10 -13 -10 -7 0
4 7 1 12 -8 12 -9 0 -16 4 -16 9 0 4 -12 7 -27 7 -16 -1 -34 3 -42 9 -11 7
-13 7 -8 -1 3 -6 -1 -11 -9 -11 -8 0 -13 6 -10 12 3 8 -6 13 -22 13 -15 1 -47
1 -70 2 -31 1 -42 5 -39 14 3 7 -1 13 -9 13 -7 0 -11 -4 -8 -9 3 -4 0 -8 -5
-8 -6 0 -11 5 -11 11 0 8 -4 8 -14 0 -10 -9 -16 -8 -26 4 -7 9 -17 12 -24 7
-17 -13 -61 -8 -58 7 1 7 -2 10 -7 7 -5 -4 -12 -2 -16 4 -4 7 -13 6 -27 -1
-15 -8 -22 -8 -28 1 -5 9 -9 9 -14 1 -5 -8 -13 -8 -26 -1 -13 7 -21 7 -26 -1
-5 -8 -8 -8 -14 0 -5 8 -14 9 -33 2 -15 -6 -27 -7 -27 -3 0 10 -51 9 -67 -1
-8 -5 -13 -4 -13 2 0 11 -35 10 -46 -2 -3 -3 -18 2 -32 11 -15 9 -23 11 -19 5
5 -7 4 -13 0 -13 -5 0 -15 6 -22 13 -11 10 -13 10 -7 0 9 -15 -20 -18 -29 -3
-3 6 -12 10 -18 10 -7 0 -6 -4 3 -11z m444 -30 c-3 -5 -10 -7 -15 -3 -5 3 -7
10 -3 15 3 5 10 7 15 3 5 -3 7 -10 3 -15z m-681 -94 c-7 -21 -13 -19 -13 6 0
11 4 18 10 14 5 -3 7 -12 3 -20z m-29 6 c16 -2 -4 -15 -24 -16 -10 -1 -21 4
-24 10 -2 7 5 11 17 9 12 -1 26 -3 31 -3z m-204 -25 c0 -3 -4 -8 -10 -11 -5
-3 -10 -1 -10 4 0 6 5 11 10 11 6 0 10 -2 10 -4z m3762 -3881 c-8 -16 -9 -16
-15 -1 -4 10 -3 15 3 11 6 -3 10 -1 10 6 0 7 3 10 6 6 3 -3 2 -13 -4 -22z
m-41 -618 c-10 -9 -11 -8 -5 6 3 10 9 15 12 12 3 -3 0 -11 -7 -18z m-36 -237
c-3 -5 -12 -7 -20 -3 -21 7 -19 13 6 13 11 0 18 -4 14 -10z m-56 -147 c-6 -7
-17 -13 -23 -12 -7 0 -6 2 2 6 6 2 10 8 8 12 -3 4 1 8 9 8 11 0 12 -4 4 -14z
m-5288 -1650 c13 -16 12 -17 -3 -4 -17 13 -22 21 -14 21 2 0 10 -8 17 -17z
m3708 -110 c-7 -7 -17 -12 -23 -10 -6 3 -19 0 -28 -5 -14 -7 -16 -5 -11 8 4
10 14 14 30 11 13 -2 26 0 29 5 3 4 2 8 -3 7 -17 -3 -24 1 -18 11 5 8 11 7 21
-1 11 -9 12 -15 3 -26z m-109 -34 c0 -6 -4 -7 -10 -4 -5 3 -10 11 -10 16 0 6
5 7 10 4 6 -3 10 -11 10 -16z"/>
<path d="M4586 7608 c3 -5 10 -6 15 -3 13 9 11 12 -6 12 -8 0 -12 -4 -9 -9z"/>
<path d="M5370 7497 c0 -2 6 -10 14 -16 11 -9 16 -9 22 1 4 7 4 10 -1 6 -4 -4
-14 -3 -22 3 -7 6 -13 9 -13 6z"/>
<path d="M6370 6726 c0 -2 7 -7 16 -10 8 -3 12 -2 9 4 -6 10 -25 14 -25 6z"/>
<path d="M6410 6707 c0 -10 7 -17 16 -17 10 0 14 -6 11 -14 -3 -8 1 -13 11
-12 10 1 16 -6 16 -16 -1 -10 2 -15 7 -13 4 3 13 -4 19 -15 6 -11 15 -18 21
-15 5 4 9 2 9 -4 0 -5 -6 -12 -12 -15 -9 -4 -8 -5 2 -5 32 2 39 -2 34 -18 -5
-16 -5 -17 5 -1 13 20 4 48 -15 48 -8 0 -19 11 -24 25 -5 14 -12 25 -15 25 -4
0 -3 -6 1 -12 3 -7 -4 -2 -17 12 -13 14 -34 34 -47 44 -19 17 -22 17 -22 3z"/>
<path d="M6573 6583 c4 -6 2 -13 -4 -15 -11 -4 -2 -38 11 -38 11 0 6 47 -5 58
-4 4 -5 2 -2 -5z"/>
<path d="M6595 6530 c-15 -17 -16 -20 -3 -20 15 0 33 -26 30 -42 -1 -5 1 -7 6
-6 4 0 23 -6 42 -15 21 -10 28 -16 17 -17 -15 0 -16 -2 -5 -14 9 -10 15 -11
20 -2 8 12 11 2 8 -28 -1 -13 3 -17 13 -13 11 4 13 0 10 -14 -6 -21 4 -24 27
-8 13 9 12 10 -3 5 -15 -5 -17 -2 -12 14 5 15 2 20 -12 21 -10 0 -13 3 -6 5
14 6 -28 54 -48 54 -11 0 -11 2 1 11 12 8 9 9 -9 4 -19 -6 -23 -4 -18 8 3 9
-1 18 -9 21 -9 3 -13 10 -9 15 3 5 0 13 -6 17 -8 4 -9 3 -5 -4 4 -7 2 -12 -5
-12 -6 0 -9 8 -6 20 3 11 4 20 3 20 -2 0 -11 -9 -21 -20z"/>
<path d="M6757 6326 c-3 -6 4 -13 14 -13 22 -2 25 12 5 20 -8 3 -16 0 -19 -7z"/>
<path d="M6794 6295 c-9 -22 1 -29 15 -11 8 10 9 16 1 21 -5 3 -13 -1 -16 -10z"/>
<path d="M3197 6283 c-14 -14 -17 -15 -17 -3 0 13 -2 13 -10 0 -6 -9 -10 -10
-10 -3 0 12 -30 10 -50 -2 -6 -3 -10 0 -10 7 0 9 -3 9 -10 -2 -9 -13 -10 -13
-10 0 0 13 -1 13 -10 0 -5 -8 -10 -10 -10 -5 0 6 -9 11 -19 11 -11 0 -17 -4
-15 -8 3 -4 1 -8 -5 -8 -5 0 -13 5 -17 11 -4 8 -9 7 -15 -2 -7 -11 -9 -11 -9
-1 0 7 -5 10 -10 7 -6 -4 -8 -12 -4 -18 3 -7 -1 -4 -9 6 -11 14 -16 15 -20 5
-4 -10 -6 -10 -6 0 -1 6 -6 12 -12 12 -5 0 -7 -5 -3 -12 5 -7 3 -8 -7 -2 -21
13 -39 14 -39 2 0 -6 -6 -5 -15 2 -9 7 -19 10 -22 6 -4 -4 -1 -12 7 -17 12 -9
12 -10 -3 -5 -10 3 -21 6 -23 6 -3 0 -2 6 1 13 4 6 -1 3 -9 -7 -16 -20 -16
-20 -16 0 0 16 -2 17 -10 4 -9 -13 -10 -13 -11 0 0 10 -3 8 -9 -5 -7 -16 -9
-17 -9 -3 -1 13 -8 15 -28 12 -15 -3 -30 -7 -34 -10 -4 -2 -10 0 -14 6 -3 5
-11 10 -16 10 -6 0 -8 -4 -5 -9 7 -10 -20 -9 -30 2 -3 3 -13 -1 -21 -9 -8 -8
-19 -12 -24 -9 -5 4 -9 1 -9 -5 0 -7 7 -10 15 -7 8 4 17 2 20 -4 4 -5 3 -9 -2
-8 -20 4 -24 -2 -12 -18 12 -15 12 -16 -3 -10 -12 4 -15 2 -12 -8 3 -8 13 -11
22 -8 11 3 13 2 6 -4 -16 -12 -30 -58 -14 -48 9 6 9 3 1 -14 -11 -20 -8 -25
12 -22 5 1 6 -3 2 -9 -3 -5 -13 -10 -21 -10 -8 0 -12 -5 -9 -10 4 -6 11 -8 16
-5 5 4 5 -5 -1 -20 -13 -33 -13 -38 1 -29 8 5 8 1 0 -13 -7 -14 -7 -23 1 -31
9 -9 7 -12 -7 -12 -18 0 -18 0 1 -16 10 -8 13 -13 7 -9 -16 7 -16 4 -3 -29 6
-16 6 -27 -1 -31 -5 -4 -7 -11 -3 -16 3 -5 10 -6 16 -3 7 4 8 2 4 -5 -4 -6
-12 -9 -17 -6 -5 4 -9 -1 -9 -10 0 -10 5 -13 13 -9 6 4 4 -2 -6 -13 -10 -12
-14 -24 -9 -27 14 -9 21 -56 9 -63 -6 -4 -7 -1 -2 7 5 8 4 11 -3 6 -14 -9 -3
-38 12 -30 6 3 2 -2 -8 -10 -17 -14 -17 -16 -4 -16 9 0 20 -4 23 -10 3 -5 0
-7 -9 -4 -13 5 -14 1 -6 -25 6 -20 5 -33 -2 -37 -7 -5 -8 -2 -3 6 5 9 4 11 -4
6 -7 -5 -9 -12 -3 -19 5 -7 12 -21 16 -31 6 -17 5 -17 -10 -5 -16 13 -16 12
-6 -7 6 -12 9 -24 6 -27 -3 -3 -1 -21 4 -41 7 -25 7 -38 0 -42 -7 -5 -8 -2 -3
7 5 8 4 10 0 6 -12 -10 -16 -39 -5 -32 13 8 17 -27 7 -52 -8 -18 -6 -27 7 -42
17 -19 17 -19 -3 -14 -13 3 -21 1 -21 -6 0 -7 4 -10 9 -6 5 3 12 1 16 -5 3 -5
0 -10 -7 -10 -9 0 -9 -3 2 -10 8 -5 10 -10 4 -10 -7 0 -9 -11 -6 -26 4 -21 2
-25 -9 -19 -11 7 -12 6 -2 -7 7 -8 9 -19 5 -23 -4 -5 -1 -5 6 -1 7 4 9 12 6
18 -5 7 -2 8 5 4 7 -5 10 -15 7 -23 -4 -9 -2 -11 7 -6 19 12 57 11 57 -1 0 -7
3 -7 8 -1 11 16 52 18 52 3 0 -9 2 -10 8 -2 4 7 16 13 27 16 15 3 20 11 20 35
0 17 3 29 6 27 11 -7 16 18 14 69 -1 26 3 47 7 47 5 0 6 -6 2 -12 -4 -8 -3
-10 2 -5 12 12 12 30 -1 39 -6 5 -3 8 7 8 11 0 15 6 11 20 -3 13 0 20 8 20 11
0 11 2 -1 10 -13 8 -12 10 3 10 10 0 15 5 12 11 -4 5 1 19 12 31 10 11 18 30
18 42 1 12 6 20 14 18 9 -2 12 4 8 18 -3 11 -1 18 4 14 5 -3 9 0 9 6 0 6 5 8
12 4 7 -5 8 -3 3 5 -4 8 1 19 15 28 12 8 19 21 16 30 -3 8 -1 11 4 8 6 -3 10
-1 10 5 0 6 5 8 10 5 6 -3 10 1 10 10 0 9 5 13 10 10 6 -3 10 -1 10 5 0 6 4 9
9 6 5 -3 8 1 7 10 0 9 8 21 19 28 11 6 24 17 28 24 4 6 14 12 22 12 8 0 18 7
23 16 5 9 13 16 18 16 5 0 8 4 6 9 -1 6 6 9 15 7 12 -2 17 2 15 12 -3 11 -1
12 8 4 9 -9 17 -7 31 7 11 11 24 17 29 14 6 -4 13 1 16 10 4 9 13 14 21 11 8
-3 11 -1 8 4 -6 10 4 12 52 13 18 1 20 3 10 16 -10 12 -9 14 6 8 9 -4 17 -2
17 5 0 7 5 6 15 -2 11 -9 15 -9 15 -1 0 7 4 10 9 7 5 -4 11 0 13 6 3 7 14 14
26 14 49 3 53 4 46 15 -4 8 9 10 44 8 34 -3 48 0 45 7 -2 7 1 15 8 20 8 5 10
3 4 -6 -6 -10 -4 -11 11 -5 10 4 30 8 44 9 14 0 31 5 39 10 9 6 12 5 8 0 -3
-5 3 -10 13 -10 14 0 16 4 9 12 -7 9 -2 12 21 10 16 -1 30 3 30 8 0 6 4 5 9
-3 7 -11 9 -11 14 0 4 10 6 10 6 2 1 -9 8 -10 27 -3 32 12 37 12 29 1 -10 -18
37 -2 51 16 11 13 14 14 12 3 -2 -11 7 -15 34 -15 20 0 34 3 32 6 -2 4 3 9 11
13 8 3 17 0 21 -6 4 -7 3 -8 -4 -4 -8 4 -10 2 -6 -8 5 -12 9 -11 26 6 18 18
21 18 36 5 12 -11 22 -13 34 -6 12 7 20 5 27 -8 6 -11 11 -13 11 -5 0 8 5 10
12 6 8 -5 9 -2 4 12 -6 16 -4 16 16 -4 23 -21 25 -21 42 -4 11 9 16 12 12 6
-3 -7 1 -15 10 -18 8 -3 13 -2 10 2 -3 5 8 9 24 9 17 0 30 -3 30 -6 0 -3 13
-6 30 -7 16 -1 27 2 25 7 -3 4 11 2 30 -3 20 -7 32 -16 28 -22 -4 -6 1 -5 10
3 10 8 17 9 17 3 0 -6 9 -9 20 -7 11 2 22 -1 26 -7 4 -6 10 -5 15 3 7 11 9 10
9 -4 0 -10 5 -15 11 -12 6 4 17 -1 25 -11 9 -11 13 -13 9 -6 -4 7 0 12 9 12 9
0 16 -6 16 -14 0 -9 7 -12 20 -9 14 4 20 0 20 -11 0 -9 4 -16 10 -16 5 0 14
-10 21 -21 9 -17 8 -20 -3 -14 -7 3 -4 -1 6 -9 15 -12 16 -16 5 -16 -8 0 -10
-3 -4 -8 17 -12 14 -42 -4 -43 -10 0 -11 -2 -3 -6 8 -3 5 -11 -10 -25 -13 -11
-18 -17 -11 -14 7 4 9 -1 6 -15 -4 -16 -8 -17 -14 -7 -6 9 -9 6 -10 -12 -1
-14 -1 -29 0 -34 1 -5 -5 -3 -14 4 -13 11 -15 10 -9 -4 3 -9 1 -16 -6 -16 -6
0 -8 -4 -5 -10 3 -5 1 -10 -5 -10 -6 0 -8 -4 -5 -10 3 -5 1 -10 -5 -10 -6 0
-9 -4 -6 -8 7 -11 -30 -42 -40 -34 -4 4 -4 -1 -1 -10 4 -10 2 -18 -4 -18 -6 0
-8 -7 -5 -16 3 -8 2 -12 -4 -9 -6 3 -10 1 -10 -5 0 -6 -6 -8 -12 -4 -7 4 -10
4 -6 0 3 -4 0 -19 -7 -33 -8 -15 -11 -31 -8 -36 3 -6 1 -7 -6 -3 -6 4 -8 12
-5 18 4 7 2 8 -5 4 -6 -4 -9 -11 -6 -15 2 -5 -4 -19 -15 -31 -11 -12 -17 -26
-15 -30 3 -4 -2 -10 -10 -14 -8 -3 -15 -16 -15 -28 0 -19 -2 -20 -10 -8 -9 15
-11 14 -14 -12 -1 -7 -8 -12 -15 -10 -7 1 -10 -2 -6 -8 7 -12 -19 -53 -28 -44
-4 4 -5 -3 -2 -15 3 -14 -1 -21 -12 -21 -9 0 -13 -6 -9 -15 3 -8 1 -15 -5 -15
-6 0 -7 -5 -4 -10 4 -6 1 -9 -6 -8 -7 2 -13 -2 -14 -8 0 -6 -8 -18 -18 -28 -9
-10 -15 -22 -12 -27 4 -5 0 -9 -9 -9 -14 0 -51 -51 -58 -80 -2 -8 -11 -18 -22
-23 -16 -6 -16 -10 -5 -24 10 -12 10 -14 2 -9 -8 4 -13 2 -13 -4 0 -6 -4 -9
-9 -5 -6 3 -8 -4 -6 -15 2 -11 0 -18 -4 -15 -5 2 -15 -3 -22 -12 -10 -12 -10
-14 -1 -9 7 4 12 1 12 -8 0 -9 -3 -15 -7 -15 -20 3 -34 -2 -28 -11 3 -6 -1
-13 -9 -16 -9 -3 -14 -10 -11 -14 3 -5 -1 -12 -9 -17 -8 -4 -15 -12 -15 -18
-1 -5 -5 -10 -10 -10 -5 0 -13 -4 -18 -9 -5 -5 -3 -6 5 -2 6 4 12 2 12 -4 0
-6 -7 -13 -15 -16 -8 -4 -15 -10 -15 -16 0 -5 5 -6 12 -2 7 5 8 3 4 -5 -5 -7
-14 -10 -22 -7 -17 7 -18 -6 -1 -23 10 -10 9 -12 -3 -9 -8 2 -14 -3 -13 -9 2
-7 -3 -12 -10 -10 -7 1 -11 -6 -9 -17 2 -10 0 -16 -5 -13 -4 3 -14 -1 -21 -9
-7 -8 -10 -14 -7 -14 3 0 0 -6 -7 -14 -7 -8 -17 -11 -23 -8 -5 3 -3 -3 5 -13
13 -17 13 -18 -1 -13 -11 5 -16 1 -15 -10 0 -9 -5 -16 -12 -14 -8 1 -11 -2 -7
-8 3 -5 1 -10 -5 -10 -6 0 -10 -8 -8 -17 2 -10 -3 -17 -10 -15 -6 1 -11 -1
-11 -5 3 -20 -2 -34 -11 -28 -6 4 -10 -5 -10 -19 0 -15 -5 -25 -12 -24 -7 2
-13 -3 -14 -9 -1 -7 -2 -18 -3 -24 0 -5 -4 -8 -8 -6 -10 6 -34 -19 -26 -27 4
-3 1 -6 -6 -6 -7 0 -10 -4 -7 -9 3 -5 -1 -11 -9 -15 -8 -3 -15 -12 -15 -20 0
-8 -4 -16 -9 -18 -5 -1 -11 -10 -13 -18 -2 -8 -10 -22 -19 -30 -8 -8 -18 -23
-22 -33 -4 -10 -11 -16 -16 -12 -6 3 -8 -4 -6 -15 2 -11 0 -18 -6 -15 -8 6
-13 -8 -10 -28 1 -5 -2 -6 -6 -4 -5 3 -14 -1 -21 -9 -8 -9 -9 -14 -2 -14 6 0
-3 -14 -21 -31 -18 -18 -28 -36 -25 -45 3 -9 1 -12 -4 -9 -6 3 -13 -2 -17 -12
-4 -10 -15 -24 -26 -32 -11 -8 -17 -21 -14 -33 4 -15 3 -17 -8 -8 -10 8 -13 7
-11 -7 0 -10 -4 -17 -11 -16 -8 2 -10 -4 -6 -14 4 -9 2 -14 -3 -11 -10 7 -29
-11 -30 -29 -3 -35 -4 -38 -14 -23 -7 11 -10 12 -10 2 0 -7 -7 -20 -15 -29 -8
-8 -13 -19 -10 -24 4 -5 -2 -9 -12 -10 -10 0 -13 -3 -6 -6 9 -3 9 -8 2 -16 -5
-7 -17 -21 -25 -32 -9 -11 -12 -14 -8 -6 4 9 3 12 -4 7 -6 -4 -8 -14 -5 -23 4
-11 3 -14 -5 -9 -8 5 -12 0 -12 -13 0 -12 -4 -21 -9 -21 -5 0 -13 -9 -16 -20
-4 -11 -11 -18 -16 -15 -5 3 -6 0 -3 -8 3 -8 -6 -23 -20 -34 -14 -11 -23 -23
-20 -26 8 -8 -38 -67 -47 -61 -5 3 -6 -2 -3 -10 3 -9 1 -16 -6 -16 -6 0 -8 -4
-5 -10 3 -5 1 -10 -4 -10 -6 0 -10 -6 -9 -12 2 -7 -3 -12 -10 -10 -6 1 -11 -1
-10 -5 3 -14 -14 -43 -22 -38 -5 3 -6 -5 -2 -17 3 -14 1 -19 -6 -14 -6 3 -14
-3 -17 -15 -4 -12 -18 -32 -32 -45 -14 -12 -26 -31 -28 -41 -1 -10 -8 -17 -15
-15 -6 1 -9 -2 -5 -7 3 -6 -3 -19 -15 -31 -11 -11 -17 -20 -14 -20 3 0 -2 -7
-10 -16 -9 -8 -13 -20 -10 -26 4 -7 2 -8 -4 -4 -11 7 -17 -6 -13 -28 1 -5 -7
-6 -17 -4 -15 4 -18 1 -14 -17 2 -15 -3 -27 -16 -36 -10 -8 -18 -22 -16 -31 1
-11 -3 -15 -14 -11 -11 5 -14 2 -9 -10 3 -9 3 -17 -2 -17 -4 0 -18 -9 -31 -20
-21 -19 -16 -29 6 -12 5 4 0 -3 -13 -14 -12 -12 -19 -25 -16 -28 4 -3 1 -6 -6
-6 -7 0 -9 -5 -6 -11 4 -6 -2 -13 -13 -16 -14 -3 -19 -11 -17 -25 3 -15 0 -18
-13 -13 -9 3 -14 3 -10 0 3 -4 -5 -23 -18 -42 -13 -19 -21 -40 -17 -46 4 -6 0
-8 -10 -4 -11 4 -15 1 -12 -13 3 -13 -1 -17 -11 -13 -10 4 -12 0 -8 -11 4 -10
0 -18 -10 -22 -9 -3 -13 -10 -10 -15 3 -5 0 -9 -5 -9 -6 0 -10 -6 -8 -12 1 -7
-3 -12 -9 -11 -14 2 -15 -12 -13 -199 0 -37 -2 -72 -6 -78 -3 -5 0 -10 7 -10
9 0 9 -3 -2 -10 -13 -9 -13 -10 0 -10 13 0 13 -1 0 -10 -13 -9 -13 -10 0 -10
13 0 13 -1 0 -10 -8 -5 -10 -10 -4 -10 7 0 8 -17 4 -50 -4 -33 -3 -50 4 -51 6
0 2 -4 -9 -9 l-20 -9 20 0 c17 -1 17 -3 5 -11 -13 -9 -13 -10 0 -10 10 0 11
-3 4 -8 -14 -9 -13 -72 1 -72 6 0 3 -5 -5 -10 -9 -6 -11 -10 -3 -10 7 0 10 -6
7 -13 -9 -24 -10 -87 -2 -87 5 0 6 -5 3 -10 -9 -14 8 -13 23 2 9 9 12 9 12 0
0 -7 5 -12 11 -12 5 0 7 5 3 12 -5 7 -3 8 7 3 19 -12 49 -14 55 -3 3 4 10 8
15 8 6 0 7 -5 4 -10 -7 -11 30 -8 41 3 4 4 13 2 20 -4 9 -7 19 -7 33 0 13 7
22 8 26 1 3 -5 11 -10 16 -10 6 0 8 4 5 8 -3 5 1 9 9 9 8 0 15 -4 15 -8 0 -8
52 -5 68 5 7 4 12 3 12 -2 0 -10 50 -9 68 2 7 4 12 3 12 -2 0 -10 50 -9 68 2
7 4 12 3 12 -2 0 -10 50 -9 68 2 7 4 12 3 12 -3 0 -11 40 -8 60 4 8 5 11 4 6
-3 -7 -11 44 -10 63 2 5 4 11 0 14 -6 3 -10 7 -10 19 0 12 10 17 10 20 1 3 -9
9 -9 27 1 18 9 22 9 16 0 -6 -9 -3 -9 13 -1 15 8 21 8 25 -2 3 -9 7 -9 20 2
14 11 17 11 17 0 0 -11 2 -11 10 1 6 10 10 11 10 3 0 -13 26 -13 47 0 6 4 13
2 15 -4 3 -9 10 -9 27 1 18 9 22 9 16 0 -6 -9 -3 -9 13 -1 15 8 21 8 25 -2 3
-9 7 -9 19 1 12 10 17 10 20 1 3 -9 9 -9 27 1 18 9 22 9 16 0 -6 -9 -2 -9 14
-1 11 7 21 8 21 2 0 -5 11 -8 24 -7 13 0 22 4 19 9 -2 4 0 7 6 7 5 0 11 -5 13
-11 2 -7 12 -7 31 0 15 6 27 7 27 2 0 -5 11 -8 24 -7 13 0 22 4 19 9 -2 4 0 7
6 7 5 0 11 -6 14 -12 3 -10 7 -10 19 -1 8 7 17 11 20 8 9 -9 68 -12 62 -4 -3
5 -1 9 5 9 5 0 11 -6 14 -12 3 -10 7 -10 20 1 10 8 17 9 17 3 0 -12 39 -10 59
2 8 5 16 3 21 -5 7 -10 11 -10 24 0 10 8 16 9 16 3 0 -12 39 -10 59 2 8 5 16
3 21 -5 7 -10 11 -10 24 0 10 8 16 9 16 3 0 -12 38 -10 58 2 7 4 12 3 12 -2 0
-10 30 -9 48 2 6 4 12 3 12 -3 0 -7 8 -7 24 -1 17 6 26 5 29 -3 3 -9 8 -9 20
2 10 8 17 9 17 3 0 -11 45 -10 57 1 3 4 12 2 19 -4 9 -7 19 -7 30 -1 13 7 25
5 43 -6 22 -14 24 -14 14 -1 -10 12 -8 15 8 15 10 0 19 -3 19 -7 0 -9 21 -6
38 4 6 5 12 4 12 0 0 -5 9 -9 20 -10 11 -1 18 1 16 5 -3 4 4 8 14 8 10 0 16
-4 13 -8 -4 -8 23 -6 52 3 6 2 21 -3 35 -11 22 -12 24 -11 13 2 -10 12 -10 14
5 13 9 0 23 -4 29 -8 7 -5 22 -3 34 4 15 8 19 8 15 0 -10 -15 7 -14 22 1 9 9
12 9 12 0 0 -7 5 -12 11 -12 5 0 7 6 3 13 -6 9 -5 9 7 0 9 -7 20 -8 29 -3 8 5
19 6 25 2 14 -10 55 -10 49 0 -3 4 -1 8 5 8 5 0 11 -6 14 -12 3 -10 9 -10 24
-1 14 8 24 8 31 1 7 -7 16 -7 28 0 13 7 25 6 43 -6 23 -15 24 -15 14 -1 -11
13 -10 15 5 14 9 0 23 -4 29 -8 7 -5 21 -3 32 3 13 7 22 7 26 0 3 -5 11 -10
16 -10 6 0 8 4 5 8 -2 4 4 8 14 8 10 0 16 -4 13 -8 -4 -8 23 -6 52 3 6 2 21
-3 35 -11 22 -12 24 -11 13 2 -10 12 -10 14 5 13 9 0 23 -4 29 -8 7 -5 22 -3
34 4 12 6 19 7 15 1 -3 -6 4 -9 18 -8 13 0 22 4 19 9 -2 4 0 7 6 7 5 0 11 -5
13 -11 2 -7 12 -7 30 0 19 7 28 7 30 -1 3 -8 11 -7 27 2 13 6 21 7 17 2 -7
-12 32 -10 52 2 7 4 12 2 12 -6 1 -9 5 -7 14 4 7 10 16 15 19 11 4 -3 7 -1 7
5 0 7 -4 12 -9 12 -9 0 -6 54 4 70 3 5 0 12 -6 16 -8 5 -9 3 -4 -6 5 -9 4 -11
-4 -6 -9 6 -9 11 0 22 6 8 9 23 6 34 -3 11 0 20 6 20 8 0 8 3 2 8 -12 9 -14
82 -1 82 4 0 3 6 -3 14 -9 11 -9 15 1 19 8 4 9 6 1 6 -6 1 -9 10 -6 21 3 13 0
20 -8 20 -12 0 -12 2 0 9 8 5 12 19 9 35 -3 15 -1 26 6 26 7 0 7 3 1 8 -5 4
-10 31 -10 60 0 28 5 52 10 52 7 0 7 3 0 8 -5 4 -10 21 -10 37 0 17 5 33 10
37 6 5 5 8 -2 8 -7 0 -10 7 -6 16 3 9 0 20 -8 25 -11 7 -9 9 6 9 11 0 16 4 10
8 -5 4 -10 44 -10 90 0 48 4 82 10 82 7 0 7 3 0 8 -5 4 -10 30 -10 57 0 28 5
53 10 57 7 5 7 8 0 8 -5 0 -10 18 -10 40 0 22 4 40 8 40 5 0 5 6 0 13 -4 6 -6
20 -5 30 2 9 0 17 -5 16 -22 -4 -34 2 -27 14 6 9 4 9 -7 1 -16 -12 -58 -13
-76 -1 -6 4 -15 2 -19 -4 -5 -8 -3 -9 6 -4 9 5 11 4 6 -3 -5 -9 -13 -9 -27 -2
-13 8 -19 7 -19 0 0 -6 -5 -8 -11 -4 -7 4 -7 -1 1 -16 7 -12 8 -20 2 -16 -5 3
-16 -2 -23 -11 -10 -12 -10 -14 -1 -9 6 4 12 2 12 -3 0 -6 -5 -11 -11 -11 -5
0 -7 -5 -4 -10 3 -6 -1 -13 -9 -16 -9 -3 -13 -10 -10 -15 3 -5 -2 -16 -10 -25
-9 -9 -14 -20 -11 -25 4 -5 2 -9 -4 -9 -6 0 -8 -7 -4 -15 3 -10 1 -15 -7 -13
-7 2 -14 -8 -16 -22 -3 -14 -10 -29 -18 -35 -7 -5 -11 -16 -8 -24 3 -10 0 -12
-11 -8 -11 4 -14 2 -11 -7 3 -7 -2 -19 -11 -26 -8 -7 -15 -20 -15 -29 0 -9 -9
-23 -20 -31 -14 -10 -16 -16 -7 -22 9 -6 9 -8 -1 -8 -7 0 -17 -12 -22 -26 -6
-14 -14 -22 -20 -19 -9 6 -15 -16 -11 -39 1 -5 -5 -6 -14 -2 -9 3 -13 2 -10
-3 7 -13 -40 -63 -50 -53 -5 4 -5 -1 -2 -10 4 -12 0 -18 -16 -20 -12 -2 -21
-7 -19 -11 5 -14 -27 -39 -40 -31 -7 4 -10 4 -6 0 9 -11 -34 -51 -54 -50 -10
1 -15 -3 -12 -7 3 -5 -2 -9 -11 -9 -9 0 -13 -5 -9 -11 4 -8 0 -8 -15 0 -17 10
-20 9 -15 -4 6 -14 -6 -19 -43 -18 -7 1 -11 -2 -9 -6 3 -4 -4 -13 -16 -20 -13
-8 -18 -9 -13 -1 9 14 -36 -10 -47 -25 -5 -6 -8 -5 -8 4 0 10 -3 11 -14 2 -8
-6 -18 -11 -22 -10 -27 5 -46 -2 -41 -16 5 -11 1 -12 -18 -5 -18 7 -25 6 -25
-3 0 -8 -4 -7 -10 3 -7 12 -10 12 -10 1 0 -7 -6 -11 -14 -8 -7 3 -19 0 -26 -6
-7 -7 -10 -7 -7 -2 3 6 -3 12 -14 12 -11 1 -22 -4 -25 -10 -2 -7 -21 -12 -44
-11 -23 0 -40 -4 -40 -10 0 -7 -3 -7 -8 -1 -10 14 -32 17 -32 4 0 -8 -5 -8
-15 1 -12 10 -15 10 -15 0 0 -9 -4 -9 -17 1 -9 8 -14 9 -10 3 4 -7 -2 -11 -18
-11 -14 0 -22 4 -18 10 3 6 1 7 -5 3 -7 -4 -12 -14 -12 -22 0 -8 -5 -12 -10
-9 -6 4 -8 11 -4 17 3 5 -7 3 -23 -5 -20 -11 -34 -12 -46 -6 -11 7 -17 7 -17
0 0 -10 -19 -9 -37 2 -6 4 -14 3 -18 -2 -4 -7 -15 -7 -31 -1 -17 7 -23 7 -19
0 3 -6 2 -10 -4 -10 -5 0 -13 5 -16 10 -4 7 -14 6 -28 -2 -12 -6 -22 -11 -22
-10 0 0 -13 5 -28 11 -18 7 -26 7 -22 1 3 -6 2 -10 -4 -10 -5 0 -13 5 -16 10
-4 7 -14 6 -28 -2 -12 -6 -24 -10 -27 -8 -21 12 -50 18 -45 10 3 -6 2 -10 -4
-10 -5 0 -13 5 -16 10 -4 7 -14 6 -28 -2 -12 -6 -24 -10 -27 -8 -20 11 -50 18
-45 11 3 -6 -4 -9 -15 -8 -11 1 -20 5 -20 10 0 4 -6 5 -12 1 -19 -12 -48 -12
-48 -1 0 5 -7 3 -17 -4 -13 -11 -17 -11 -20 -1 -3 6 -9 12 -14 12 -6 0 -8 -3
-6 -8 3 -4 -15 -7 -39 -7 -24 0 -44 3 -44 7 0 4 -12 3 -27 -3 -19 -7 -28 -6
-33 2 -6 8 -9 7 -13 -2 -4 -10 -6 -10 -6 -2 -1 9 -8 10 -28 2 -19 -7 -28 -6
-33 2 -6 8 -9 7 -13 -2 -4 -10 -6 -10 -6 -2 -1 9 -8 10 -28 2 -19 -7 -28 -6
-33 2 -6 8 -9 7 -13 -2 -4 -10 -6 -10 -6 -2 -1 9 -8 10 -28 2 -19 -7 -28 -6
-33 2 -6 8 -9 7 -13 -2 -4 -10 -6 -10 -6 -2 -1 9 -8 10 -28 2 -19 -7 -28 -6
-33 2 -6 8 -9 7 -13 -2 -4 -10 -6 -10 -6 -2 -1 9 -8 10 -28 2 -19 -7 -28 -6
-33 2 -6 8 -9 7 -13 -2 -4 -11 -6 -11 -6 -1 -1 7 -5 11 -10 7 -17 -10 -71 -13
-77 -4 -3 5 -10 7 -15 3 -16 -10 -79 -12 -79 -3 0 5 -5 9 -11 9 -5 0 -8 -3 -6
-7 3 -5 -10 -8 -29 -8 -19 0 -34 4 -34 9 0 5 -7 3 -16 -5 -13 -10 -17 -10 -24
1 -7 11 -12 11 -23 2 -10 -9 -18 -8 -33 4 -10 8 -14 13 -8 10 7 -3 18 2 25 11
10 11 10 14 2 9 -9 -5 -11 -2 -7 8 3 9 10 13 15 10 5 -3 9 4 9 16 0 11 7 23
16 27 8 3 13 12 10 19 -3 9 2 14 14 14 11 0 20 5 20 10 0 6 -5 10 -10 10 -6 0
-5 6 2 14 7 8 16 12 21 9 4 -2 7 5 7 17 0 12 5 18 10 15 10 -6 13 3 13 37 0
11 5 14 15 10 11 -4 14 -1 9 12 -4 10 -3 15 3 11 6 -3 10 1 10 10 0 9 4 14 9
10 6 -3 8 3 6 15 -2 11 1 19 8 17 6 -1 13 9 15 22 3 19 6 21 13 10 7 -11 9 -9
9 9 0 12 5 22 11 22 5 0 8 4 5 9 -4 5 -3 11 2 13 4 1 18 20 31 41 12 20 27 37
32 37 6 0 8 4 4 9 -3 5 -1 12 5 16 6 4 8 11 5 16 -3 5 2 6 11 2 11 -4 15 -3
11 4 -4 6 0 19 9 27 8 9 12 16 7 16 -4 0 0 5 10 11 9 5 17 17 17 24 0 8 5 15
10 15 6 0 10 10 10 21 0 17 3 19 14 10 12 -10 14 -9 9 7 -3 12 2 22 12 26 9 3
13 10 10 16 -3 5 -1 10 4 10 6 0 10 6 8 13 -1 6 5 11 14 11 12 -1 14 5 11 24
-3 16 -1 23 6 18 6 -3 13 3 17 14 4 11 10 18 15 15 4 -3 11 2 14 11 4 10 2 13
-7 8 -6 -4 -1 4 12 19 14 16 20 30 15 39 -6 10 -4 10 9 -1 15 -12 17 -12 11 4
-5 13 -4 16 4 11 8 -5 10 -2 6 8 -3 9 -1 16 5 16 6 0 11 7 11 16 0 8 4 13 9
10 5 -3 16 12 25 34 9 22 22 40 31 40 9 0 12 6 8 17 -5 12 -3 14 7 8 10 -6 12
-4 7 8 -4 10 -2 16 5 14 7 -1 12 3 13 10 0 7 9 19 20 28 11 9 13 13 5 9 -13
-7 -13 -5 -1 9 7 9 17 15 20 12 4 -2 8 2 8 10 0 8 -5 12 -11 9 -6 -4 4 8 22
25 19 16 31 35 27 41 -3 5 -1 10 5 10 6 0 8 5 5 10 -4 6 -1 9 7 8 7 -2 13 5
13 14 0 9 4 20 9 25 5 4 6 3 2 -4 -4 -7 -2 -13 3 -13 6 0 11 9 11 20 0 11 4
20 9 20 5 0 13 9 16 20 4 11 11 17 17 14 7 -5 9 -1 5 9 -3 9 0 18 9 21 8 3 14
12 14 19 0 8 10 22 23 31 12 9 16 14 10 11 -9 -4 -11 -1 -7 10 4 9 12 14 20
11 8 -3 11 2 9 15 -2 11 4 23 16 29 11 6 17 15 14 19 -2 5 6 16 20 25 14 9 25
23 25 31 0 7 7 21 16 29 8 9 12 21 8 27 -4 8 -3 9 4 5 7 -4 12 -1 12 8 0 9 5
16 10 16 6 0 10 6 10 14 0 7 7 19 15 26 8 7 12 16 9 21 -3 5 2 6 10 3 11 -4
16 0 16 10 0 9 14 30 30 46 17 17 25 30 18 30 -8 0 -6 5 5 11 9 6 15 14 12 20
-4 5 1 12 9 15 9 3 13 11 9 17 -4 6 0 8 10 4 12 -4 15 -1 12 14 -2 11 0 17 5
14 5 -3 11 4 15 15 4 11 11 18 16 15 5 -3 6 1 3 9 -4 10 -1 16 7 16 7 0 10 3
6 6 -3 3 5 16 19 29 13 12 24 33 25 46 0 13 3 18 6 11 3 -8 12 -1 23 20 10 18
16 36 13 40 -2 4 4 5 13 1 12 -4 15 -3 10 5 -4 7 -2 12 3 12 6 0 11 7 11 15 0
9 7 18 16 22 9 3 14 13 11 24 -3 12 0 16 9 12 10 -4 12 0 8 11 -4 11 -2 16 7
14 7 -2 13 3 14 10 0 7 7 17 15 22 8 5 11 10 5 10 -5 0 -2 5 8 11 9 6 14 15
11 21 -5 8 -1 9 11 4 15 -5 16 -4 5 9 -12 14 -5 20 21 17 4 -1 6 6 5 16 0 9 4
16 11 15 7 -2 10 6 8 17 -2 11 1 23 7 26 7 5 9 2 4 -7 -4 -8 -1 -5 6 5 7 11
20 27 30 37 12 13 13 20 5 29 -9 8 -7 9 7 4 13 -5 17 -4 12 4 -3 6 2 15 11 21
10 6 14 11 9 11 -5 0 3 9 17 20 17 14 23 26 20 40 -3 12 -2 20 3 19 5 -1 16
-1 24 0 13 1 13 2 0 11 -11 7 -11 10 -2 10 8 0 10 5 6 13 -5 7 0 6 11 -3 10
-8 16 -10 12 -3 -10 16 2 43 19 43 12 0 12 4 3 21 -8 15 -8 19 0 15 14 -9 39
15 33 32 -2 6 3 12 12 12 8 0 18 5 22 12 5 7 2 9 -7 4 -8 -5 -8 -2 2 6 9 7 14
19 11 27 -3 8 0 11 6 7 9 -6 27 21 24 37 -1 4 5 7 14 7 9 0 14 6 11 13 -5 14
18 39 28 29 4 -4 5 -2 4 3 -4 13 20 57 39 71 8 6 12 16 8 22 -3 6 3 13 14 17
11 3 19 12 17 18 -1 7 4 11 11 9 8 -1 11 2 7 8 -8 13 19 52 30 42 5 -4 5 -1 1
6 -5 8 0 21 13 33 12 11 18 25 15 31 -4 7 -2 8 4 4 7 -4 12 -1 12 8 0 8 5 18
12 22 7 5 8 3 3 -6 -5 -9 -4 -11 4 -6 6 4 9 12 6 17 -4 5 -1 17 5 26 10 16 11
16 6 -2 -6 -19 -5 -19 8 -2 8 11 12 25 9 33 -3 9 0 14 8 12 9 -2 13 4 11 15
-2 10 3 16 10 15 7 -2 12 3 10 10 -1 6 3 12 9 12 5 0 8 4 5 9 -3 5 1 11 9 15
8 3 15 13 15 23 0 15 2 16 10 3 8 -12 10 -9 10 13 0 15 5 27 10 27 6 0 10 7
10 16 0 8 5 12 10 9 6 -3 10 -1 10 5 0 6 5 8 13 4 9 -6 9 -4 -1 8 -11 14 -10
18 8 28 11 6 18 15 15 21 -4 5 1 12 10 15 9 4 14 12 11 20 -3 7 10 25 28 41
18 15 32 36 30 46 -1 9 2 15 7 11 5 -3 9 0 9 6 0 6 5 8 12 4 7 -4 8 -3 4 5 -4
6 -1 18 6 26 30 34 36 43 31 49 -3 3 2 8 11 12 9 3 16 13 16 21 0 8 5 11 11 7
7 -4 10 -1 7 7 -3 8 2 20 11 27 9 8 10 11 4 7 -9 -4 -11 -1 -7 9 3 9 10 13 15
10 5 -3 14 8 21 23 7 15 21 35 30 44 21 19 24 34 6 23 -8 -4 -10 -3 -5 2 5 5
14 9 20 9 7 0 11 8 9 17 -1 9 2 19 8 23 5 3 10 14 10 23 0 15 -2 15 -10 2 -6
-9 -10 -10 -10 -3 0 6 -13 11 -30 11 -16 -1 -27 -4 -25 -9 3 -4 -3 -6 -12 -4
-10 2 -18 4 -18 5 0 1 -8 3 -17 5 -10 2 -18 -2 -18 -8 0 -9 -2 -9 -8 0 -8 13
-29 13 -49 0 -8 -5 -13 -3 -13 5 0 10 -3 9 -11 -2 -8 -12 -12 -12 -16 -2 -4
10 -8 10 -19 1 -11 -9 -14 -8 -14 2 0 11 -2 11 -10 -1 -5 -8 -10 -10 -10 -3 0
12 -24 12 -36 0 -11 -11 -26 -8 -19 3 3 6 1 10 -4 10 -6 0 -11 -5 -11 -11 0
-6 -5 -7 -12 -2 -19 11 -88 11 -95 -1 -4 -5 -1 -6 7 -1 9 6 11 4 5 -5 -6 -10
-11 -9 -22 5 -9 14 -13 15 -13 4 0 -8 -3 -10 -8 -4 -4 6 -13 11 -21 13 -12 3
-12 0 -1 -12 16 -21 6 -21 -14 0 -9 8 -16 11 -16 5 0 -15 -27 -14 -33 2 -4 9
-6 9 -6 -1 -1 -10 -6 -10 -23 -1 -21 11 -22 11 -9 -5 12 -14 12 -16 -3 -10 -9
3 -16 10 -16 14 0 12 -25 7 -43 -8 -12 -10 -17 -10 -23 -1 -5 8 -3 10 7 4 8
-5 10 -4 6 0 -10 12 -38 15 -31 4 3 -5 -2 -9 -11 -9 -9 0 -14 4 -11 9 4 5 -2
8 -11 6 -10 -2 -22 -4 -26 -4 -5 -1 -6 -5 -3 -10 4 -5 -3 -7 -14 -4 -11 3 -20
10 -20 16 0 6 -6 2 -14 -9 -8 -10 -18 -16 -22 -11 -4 4 -2 7 4 7 7 0 12 5 12
10 0 7 -6 7 -20 0 -11 -6 -20 -7 -20 -3 0 4 -5 1 -10 -7 -8 -12 -10 -12 -10 5
0 17 -2 17 -10 5 -5 -8 -10 -10 -10 -4 0 13 -75 13 -87 0 -5 -5 -2 -6 6 -1 9
5 12 4 7 -3 -4 -6 -13 -9 -21 -6 -8 4 -12 11 -8 18 4 6 -2 4 -12 -4 -11 -9
-16 -10 -11 -2 11 18 -5 14 -21 -5 -8 -12 -12 -13 -11 -4 2 7 -5 15 -15 16
-15 3 -16 1 -6 -11 10 -12 9 -13 -5 -8 -9 3 -16 11 -16 17 0 7 -4 7 -12 -1
-13 -13 -32 -17 -25 -4 3 4 -23 7 -58 7 -39 0 -61 -4 -57 -10 3 -6 0 -6 -9 1
-17 12 -48 12 -68 0 -9 -6 -12 -5 -7 2 4 7 -1 10 -14 9 -11 -1 -20 -6 -20 -12
0 -5 -4 -4 -9 3 -4 8 -12 14 -16 14 -4 0 -12 -6 -16 -14 -5 -7 -9 -8 -9 -2 0
13 -218 13 -239 0 -9 -6 -12 -5 -8 1 4 6 -4 11 -18 11 -14 0 -23 -4 -20 -8 2
-3 -2 -7 -10 -7 -8 0 -12 4 -9 8 7 12 -40 6 -48 -6 -5 -6 -8 -4 -8 5 0 13 -1
13 -10 0 -8 -12 -10 -12 -10 -1 0 11 -3 11 -17 0 -13 -11 -17 -11 -20 -1 -3 6
-9 12 -14 12 -6 0 -7 -6 -3 -12 6 -10 5 -10 -7 -1 -12 10 -18 10 -29 0 -10
-10 -11 -9 -5 3 8 13 7 13 -8 1 -11 -9 -17 -10 -17 -2 0 6 -4 11 -10 11 -5 0
-7 -8 -3 -17 5 -16 4 -15 -9 1 -11 13 -17 16 -22 7 -4 -6 -12 -9 -17 -5 -5 3
-21 8 -36 10 -24 5 -25 3 -12 -12 12 -15 11 -15 -14 1 -24 16 -30 16 -38 4 -7
-12 -9 -12 -9 0 0 11 -4 10 -16 -5 -8 -10 -13 -14 -10 -7 8 15 -10 27 -19 13
-3 -5 -12 -10 -18 -10 -7 0 -6 4 3 10 8 5 10 10 5 10 -6 0 -16 -5 -23 -12 -9
-9 -12 -9 -12 0 0 7 -7 12 -15 12 -8 0 -15 -6 -15 -12 0 -8 -3 -9 -8 -3 -9 13
-35 18 -27 5 9 -14 -8 -13 -23 2 -9 9 -12 9 -12 -1 0 -11 -3 -11 -17 0 -15 12
-16 12 -10 -6 l7 -20 -16 20 c-12 14 -18 16 -21 7 -3 -9 -9 -10 -17 -3 -8 6
-24 7 -42 3 -39 -11 -60 -9 -56 6 3 16 -1 15 -21 -5z m1016 -208 c-3 -9 -8
-14 -10 -11 -3 3 -2 9 2 15 9 16 15 13 8 -4z m-1338 -535 c-3 -5 -12 -10 -18
-10 -7 0 -6 4 3 10 19 12 23 12 15 0z m1316 -433 c-10 -9 -11 -8 -5 6 3 10 9
15 12 12 3 -3 0 -11 -7 -18z m544 -236 c3 -5 2 -12 -3 -15 -5 -3 -9 1 -9 9 0
17 3 19 12 6z m-694 -1004 c-10 -9 -11 -8 -5 6 3 10 9 15 12 12 3 -3 0 -11 -7
-18z m849 -1531 c0 -3 -4 -8 -10 -11 -5 -3 -10 -1 -10 4 0 6 5 11 10 11 6 0
10 -2 10 -4z"/>
<path d="M5891 6259 c-19 -16 -28 -29 -21 -29 7 0 3 -9 -10 -20 -13 -11 -19
-20 -15 -20 5 0 0 -7 -11 -15 -10 -8 -15 -15 -10 -15 6 0 1 -7 -10 -15 -10 -8
-15 -15 -11 -15 4 0 2 -6 -5 -14 -7 -8 -17 -11 -23 -8 -5 3 -7 2 -3 -3 4 -4 3
-14 -3 -22 -6 -7 -9 -13 -5 -13 3 0 -1 -8 -9 -17 -8 -10 -22 -27 -31 -38 -8
-11 -12 -14 -8 -6 5 10 3 12 -5 7 -7 -5 -10 -14 -7 -22 3 -8 1 -14 -5 -14 -6
0 -8 -4 -4 -9 3 -5 -4 -16 -15 -24 -11 -7 -17 -17 -12 -22 4 -4 -1 -5 -10 -2
-12 4 -15 2 -12 -8 6 -15 -14 -49 -31 -56 -5 -2 -9 -7 -7 -11 1 -5 -2 -8 -8
-8 -6 0 -9 -6 -8 -12 2 -7 -3 -12 -10 -10 -8 1 -11 -2 -7 -8 9 -15 -14 -41
-29 -33 -6 4 -5 -1 3 -11 12 -14 12 -17 0 -14 -8 2 -15 -7 -17 -20 -2 -12 -7
-20 -12 -17 -4 3 -14 -8 -21 -24 -7 -16 -17 -27 -22 -24 -4 3 -7 -3 -5 -13 2
-12 -2 -18 -10 -16 -8 1 -12 -3 -10 -10 2 -6 -4 -21 -14 -32 -40 -46 -44 -53
-40 -64 2 -7 -1 -11 -6 -10 -6 2 -10 -1 -11 -5 0 -4 -8 -16 -19 -25 -10 -9
-11 -12 -3 -7 9 6 4 -4 -9 -22 -14 -18 -30 -30 -36 -28 -10 3 -12 -2 -16 -44
-2 -14 -6 -17 -14 -10 -8 7 -11 5 -10 -8 0 -10 -4 -17 -10 -16 -6 1 -11 -5
-12 -13 -1 -8 -3 -21 -4 -29 -1 -9 -7 -14 -14 -11 -7 3 -15 -2 -18 -10 -4 -10
-2 -13 7 -8 6 4 3 -2 -8 -13 -11 -11 -24 -18 -29 -15 -5 3 -6 0 -2 -6 8 -14
-23 -64 -35 -56 -5 3 -6 -1 -4 -8 3 -8 -4 -25 -16 -38 -50 -56 -63 -74 -49
-65 9 6 7 2 -3 -7 -11 -10 -16 -18 -12 -18 5 0 -2 -8 -13 -19 -12 -10 -19 -21
-15 -25 3 -3 1 -6 -6 -6 -8 0 -11 -6 -7 -16 6 -15 4 -15 -11 -3 -12 10 -15 10
-9 1 4 -7 2 -19 -4 -27 -7 -8 -9 -15 -5 -15 4 0 -3 -9 -16 -20 -13 -10 -20
-19 -16 -20 4 0 -4 -11 -18 -25 -14 -14 -25 -31 -25 -37 0 -5 -6 -8 -14 -5 -9
4 -12 -2 -10 -18 1 -13 -4 -26 -13 -29 -8 -3 -11 -11 -7 -18 5 -8 2 -9 -10 -5
-10 4 -15 3 -11 -3 3 -6 1 -10 -4 -10 -6 0 -11 -5 -11 -11 0 -5 6 -7 13 -3 6
4 2 -3 -10 -15 -13 -12 -23 -26 -23 -31 0 -6 -5 -9 -11 -8 -6 2 -13 -8 -15
-22 -3 -14 -9 -27 -14 -28 -6 -2 -8 -8 -5 -13 4 -5 -1 -6 -9 -3 -15 6 -22 -11
-17 -39 0 -4 -4 -6 -11 -5 -7 2 -13 -3 -14 -9 -1 -7 -2 -18 -3 -23 0 -6 -4 -9
-8 -8 -5 2 -8 1 -9 -2 -3 -18 -27 -50 -34 -45 -5 3 -7 -4 -5 -16 4 -18 2 -19
-11 -8 -8 7 -14 8 -12 3 1 -5 -3 -19 -10 -31 -7 -13 -10 -23 -7 -23 3 0 -8
-14 -26 -31 -17 -17 -29 -33 -26 -35 3 -3 -3 -14 -14 -25 -11 -11 -17 -25 -13
-32 4 -7 4 -9 -1 -5 -5 5 -15 -1 -22 -12 -8 -12 -20 -17 -26 -13 -8 4 -8 1 1
-9 11 -14 9 -19 -14 -37 -16 -12 -21 -21 -13 -22 8 0 5 -4 -6 -8 -11 -5 -20
-14 -20 -22 -1 -8 -7 -13 -14 -11 -7 1 -10 -2 -7 -7 4 -5 -5 -21 -18 -34 -14
-14 -22 -28 -18 -32 4 -3 -1 -11 -11 -16 -9 -6 -15 -14 -12 -19 3 -5 -4 -12
-15 -15 -17 -5 -19 -9 -9 -21 10 -12 9 -13 -4 -9 -8 4 -18 1 -23 -6 -5 -8 -3
-10 5 -4 10 5 9 2 0 -13 -7 -12 -17 -18 -21 -16 -4 3 -8 -4 -8 -16 0 -12 -4
-18 -10 -15 -5 3 -10 -2 -10 -12 0 -10 -9 -26 -20 -36 -12 -10 -18 -22 -15
-28 4 -5 1 -8 -7 -7 -7 2 -12 -5 -12 -14 1 -10 -5 -18 -14 -18 -8 0 -13 -3 -9
-6 9 -9 -16 -33 -28 -26 -5 3 -4 -2 4 -11 12 -16 12 -17 -5 -10 -17 6 -18 5
-4 -12 8 -10 11 -16 5 -13 -12 7 -37 -17 -28 -26 4 -3 -1 -6 -11 -6 -9 0 -15
-3 -13 -7 7 -11 -19 -33 -29 -25 -5 4 -3 0 3 -8 8 -11 8 -18 -2 -27 -7 -6 -17
-9 -21 -5 -5 4 -2 -1 6 -11 7 -10 9 -17 4 -16 -21 4 -35 -2 -29 -11 3 -5 2
-10 -4 -10 -6 0 -8 -8 -4 -17 3 -10 3 -15 -2 -11 -9 8 -35 -15 -35 -31 0 -6
-5 -11 -11 -11 -8 0 -7 -5 1 -16 8 -8 9 -14 4 -13 -21 4 -35 -2 -29 -11 3 -5
2 -10 -4 -10 -5 0 -13 -9 -16 -20 -4 -12 -11 -17 -18 -13 -7 4 -6 -1 2 -11 12
-15 12 -17 0 -14 -9 2 -13 -4 -11 -15 2 -9 -1 -17 -5 -16 -22 4 -32 -2 -27
-16 4 -8 1 -15 -5 -15 -6 0 -11 -7 -11 -16 0 -8 -4 -13 -9 -10 -5 3 -12 -1
-15 -10 -4 -10 -2 -13 7 -8 6 4 0 -5 -15 -21 -16 -15 -28 -34 -28 -42 0 -8 -4
-12 -9 -9 -9 6 -25 -31 -21 -49 1 -5 -2 -7 -6 -3 -10 10 -34 -11 -34 -29 0 -8
-12 -25 -27 -39 -16 -14 -21 -22 -13 -18 13 7 13 6 0 -11 -8 -11 -23 -27 -33
-37 -10 -10 -15 -23 -12 -28 4 -6 -1 -7 -11 -3 -12 4 -15 3 -10 -6 5 -7 0 -18
-10 -27 -11 -9 -13 -13 -4 -9 9 4 7 0 -4 -9 -10 -8 -15 -20 -10 -27 4 -7 3
-10 -2 -6 -6 3 -16 2 -24 -4 -13 -7 -13 -9 0 -9 12 -1 11 -3 -2 -11 -10 -5
-18 -17 -18 -25 0 -8 -4 -12 -10 -9 -5 3 -11 1 -11 -4 -1 -6 -2 -15 -3 -19 0
-5 -9 -16 -18 -26 -10 -10 -18 -22 -18 -27 0 -6 -5 -7 -12 -3 -7 5 -9 2 -5 -8
7 -19 -20 -61 -34 -52 -5 3 -9 2 -8 -3 3 -17 -14 -53 -22 -47 -5 3 -9 -4 -9
-15 0 -12 -6 -21 -14 -21 -8 0 -17 -12 -21 -27 -3 -15 -20 -40 -36 -57 -16
-17 -27 -36 -25 -43 3 -6 -3 -15 -14 -18 -12 -4 -17 -13 -15 -26 2 -11 1 -18
-3 -15 -4 2 -12 -5 -18 -17 -10 -22 -8 -22 68 -23 52 0 75 3 71 10 -5 8 -3 8
8 0 8 -5 39 -10 69 -9 30 1 61 -3 69 -9 11 -8 13 -8 8 0 -7 13 140 14 160 1 6
-4 14 -4 17 1 6 10 206 10 222 0 6 -4 14 -4 18 0 12 12 136 11 129 -1 -4 -6
-1 -7 8 -1 8 5 38 9 67 10 29 1 55 4 59 7 3 4 12 2 20 -4 10 -9 13 -8 13 2 0
11 2 11 10 -1 8 -13 10 -12 10 3 0 9 5 17 11 17 5 0 7 -4 4 -10 -3 -5 -2 -10
4 -10 5 0 12 6 14 13 4 9 6 8 6 -2 1 -11 4 -11 16 -1 17 14 39 4 28 -13 -4 -7
0 -7 10 1 9 8 22 10 29 6 10 -6 10 -5 0 8 -11 14 -10 16 7 11 12 -3 18 -10 14
-17 -4 -7 -1 -7 8 1 11 9 19 9 26 2 8 -8 13 -7 18 2 5 8 4 10 -3 5 -7 -4 -12
-3 -12 2 0 17 -45 28 -112 27 -42 -1 -68 3 -68 9 0 6 -5 4 -10 -4 -5 -8 -10
-10 -10 -3 0 14 -58 35 -65 23 -5 -8 -64 2 -85 15 -8 5 -11 4 -7 -2 3 -5 0
-10 -7 -10 -8 0 -12 6 -10 12 3 6 -2 12 -10 12 -8 0 -12 -5 -9 -11 4 -6 0 -5
-9 2 -9 7 -22 11 -29 10 -8 -2 -13 3 -11 11 2 8 -3 11 -11 8 -8 -3 -20 0 -27
6 -10 9 -11 9 -6 -3 4 -8 0 -6 -8 4 -9 11 -16 24 -16 29 0 5 -7 4 -16 -3 -12
-11 -15 -11 -12 1 2 8 8 17 13 21 6 5 5 8 -3 8 -9 0 -10 5 -2 19 7 14 6 21 -3
24 -9 3 -9 7 1 19 10 13 10 17 0 21 -9 4 -10 6 -1 6 7 1 10 8 6 16 -3 10 0 15
8 13 9 -2 14 5 13 20 -1 19 6 26 27 24 3 -1 5 10 3 24 -1 13 2 21 7 18 5 -3
14 8 20 25 6 17 15 28 20 25 5 -3 6 1 3 9 -3 8 0 18 7 23 8 5 10 3 4 -7 -5 -8
-4 -11 1 -6 5 5 10 13 10 18 1 5 2 14 3 19 0 6 8 10 16 10 8 0 14 3 13 8 -3
15 14 42 24 36 5 -3 8 2 6 12 -2 11 2 18 9 17 7 -2 12 0 12 5 -3 20 3 31 21
37 11 3 20 11 20 17 0 6 -5 7 -13 2 -7 -5 -6 -2 3 6 8 9 16 22 18 30 2 8 8 20
14 25 8 7 8 6 3 -4 -5 -9 -4 -12 3 -7 7 4 12 14 12 22 0 8 4 13 9 9 6 -3 8 3
6 14 -2 13 3 22 16 26 11 4 17 11 14 16 -4 5 -1 9 4 9 6 0 11 7 11 15 0 7 8
18 18 24 9 5 17 13 17 18 0 4 3 7 8 5 6 -2 8 3 11 34 2 17 35 46 46 39 6 -3 7
1 4 10 -4 9 2 23 15 34 16 14 18 21 9 24 -7 3 -2 6 12 7 14 1 20 4 13 6 -16 7
-5 34 12 28 7 -3 15 2 19 11 4 11 2 14 -7 9 -6 -3 0 5 15 18 15 14 25 28 21
32 -3 3 -1 6 6 6 8 0 11 6 7 16 -3 8 -2 13 3 10 9 -6 26 22 22 37 -1 5 3 6 8
3 5 -4 13 3 16 15 4 12 12 18 20 15 9 -3 12 0 9 8 -3 8 0 17 5 21 6 3 9 11 6
16 -4 5 2 9 12 9 14 0 15 2 4 9 -11 7 -9 10 8 16 11 3 21 12 21 19 0 7 9 21
20 31 12 10 18 25 15 32 -2 8 0 11 5 8 6 -3 13 2 17 12 4 10 16 26 28 36 11
10 14 15 7 12 -11 -6 -12 -3 -2 14 6 12 18 25 26 28 8 3 14 10 14 15 0 6 8 18
18 27 20 19 38 46 52 79 5 13 14 21 19 17 5 -3 13 0 17 6 4 8 3 9 -4 5 -7 -4
-12 -2 -12 4 0 6 7 13 15 16 8 4 13 10 10 14 -3 4 2 10 10 14 8 3 15 13 15 21
0 9 5 13 10 10 6 -3 10 0 10 8 0 8 12 27 27 43 15 16 26 36 24 44 -1 8 0 12 5
8 10 -10 37 29 29 42 -4 6 -1 9 6 8 7 -2 13 4 14 12 0 8 8 14 17 14 11 -1 15
5 13 17 -2 11 4 23 16 29 10 6 19 17 19 26 0 8 7 17 15 20 8 4 15 14 15 24 0
19 23 43 33 34 3 -3 8 5 12 18 4 13 10 25 14 28 3 3 11 14 18 25 6 11 16 19
22 17 6 -1 10 1 10 5 -3 21 2 33 12 27 7 -4 10 -1 7 7 -3 8 5 23 17 34 12 12
20 26 17 33 -2 8 2 10 14 5 13 -5 16 -3 11 10 -4 11 -1 17 8 17 8 0 15 5 15
11 0 5 -6 7 -12 3 -7 -3 0 5 15 19 16 14 26 31 22 37 -3 6 -3 10 2 9 4 -1 15
-1 23 0 13 1 13 2 0 11 -13 9 -13 10 0 10 8 0 24 13 35 28 19 27 19 27 0 13
-11 -8 -8 -2 8 13 25 25 31 38 28 58 0 5 2 7 7 7 4 -1 14 -1 22 0 13 1 13 2 0
11 -8 5 -10 10 -5 10 6 0 19 16 29 35 10 19 22 33 25 31 9 -6 26 17 26 34 0 8
5 14 12 13 6 -1 14 4 17 13 4 10 1 13 -7 9 -6 -4 -3 0 7 9 10 8 24 12 30 9 6
-4 5 1 -3 10 -9 12 -10 17 -2 17 7 0 9 5 6 10 -4 6 -1 9 6 8 7 -2 13 2 14 9 0
7 9 19 20 28 11 9 13 13 5 9 -13 -7 -13 -5 -1 9 7 9 17 15 21 12 5 -3 7 2 6
11 -1 9 11 29 27 45 17 17 27 36 23 44 -5 13 -2 14 17 4 19 -11 20 -10 9 3
-11 13 -8 19 15 38 15 12 22 18 15 15 -11 -6 -11 -3 -1 13 7 12 16 19 20 16 4
-2 11 1 15 7 4 8 3 9 -4 5 -7 -4 -12 -3 -12 3 0 6 9 15 21 21 11 7 18 14 15
17 -3 4 3 13 14 20 11 8 17 19 14 25 -4 6 -1 14 5 18 7 4 13 16 14 28 0 11 5
18 11 15 5 -4 7 1 3 10 -4 10 -1 17 6 17 7 0 8 3 2 8 -5 4 -10 16 -10 27 0 11
5 23 10 27 7 5 6 8 0 8 -6 0 -11 9 -11 20 0 11 5 20 11 20 5 0 3 5 -5 10 -11
7 -11 10 -2 10 8 0 10 5 6 12 -9 14 -11 68 -3 68 5 0 4 35 -1 50 -5 14 0 171
5 180 3 5 2 10 -2 10 -5 0 -9 9 -9 20 0 11 4 20 8 20 5 0 4 9 -2 19 -7 14 -6
21 3 24 6 3 8 6 2 6 -6 1 -9 33 -7 81 2 60 0 80 -10 80 -9 0 -9 3 2 10 8 5 12
11 10 14 -3 3 -21 -8 -39 -25z m-1641 -3779 c0 -5 -2 -10 -4 -10 -3 0 -8 5
-11 10 -3 6 -1 10 4 10 6 0 11 -4 11 -10z"/>
<path d="M4055 6070 c-3 -5 -1 -10 4 -10 6 0 11 5 11 10 0 6 -2 10 -4 10 -3 0
-8 -4 -11 -10z"/>
<path d="M5405 5840 c-3 -6 1 -7 9 -4 18 7 21 14 7 14 -6 0 -13 -4 -16 -10z"/>
<path d="M7115 5570 c-3 -5 -1 -10 4 -10 6 0 11 5 11 10 0 6 -2 10 -4 10 -3 0
-8 -4 -11 -10z"/>
<path d="M1990 2121 c0 -6 4 -13 10 -16 6 -3 7 1 4 9 -7 18 -14 21 -14 7z"/>
<path d="M6870 1500 c-6 -11 -8 -20 -6 -20 3 0 10 9 16 20 6 11 8 20 6 20 -3
0 -10 -9 -16 -20z"/>
</g>
</svg>
